<?xml version="1.0" encoding="utf-8"?>
<!-- Generator: Adobe Illustrator 23.0.4, SVG Export Plug-In . SVG Version: 6.00 Build 0)  -->
<svg version="1.1" id="Layer_1" xmlns="http://www.w3.org/2000/svg" xmlns:xlink="http://www.w3.org/1999/xlink" x="0px" y="0px"
	 viewBox="0 0 507.8 214.8" style="enable-background:new 0 0 507.8 214.8;" xml:space="preserve">
<style type="text/css">
	.st0{fill:#FFFFFF;}
	.st1{fill:url(#SVGID_1_);}
</style>
<g>
	<g>
		<g>
			<path class="st0" d="M271.8,186.5v7.8h-30.2v-42.4h9.5v34.6H271.8z"/>
			<path class="st0" d="M307.8,185.2h-17.6l-3.3,9H277l17-42.4h10.1l17,42.4h-9.9L307.8,185.2z M305.2,178.1l-6.2-16.7l-6.2,16.7
				H305.2z"/>
			<path class="st0" d="M364.7,182.8c0,6.9-5.6,11.4-14.2,11.4h-22.2v-42.4h22.2c7.9,0,13.1,4.3,13.1,10.5c0,5.5-3.5,8.6-8.8,10.2
				C360.8,173.7,364.7,176.9,364.7,182.8z M337.8,169.4h9.7c5,0,7.1-2.4,7.1-5.4c0-3.3-2.5-5.4-6.2-5.4h-10.6V169.4z M355.6,181.6
				c0-3-2.1-6-7.1-6h-10.7v11.9h10.4C352.1,187.5,355.6,185.6,355.6,181.6z"/>
			<path class="st0" d="M390.1,187.8c4.2,0,7.5-1.9,7.5-5.5c0-3.6-3.6-4.7-8.9-6c-7.8-1.9-16-3.7-16-12.6c0-7.9,6-12.7,16.3-12.7
				c10.1,0,16.7,4.5,17.4,14.4h-9.4c-0.5-5.1-3.5-7.4-7.9-7.4c-4.4,0-7.1,1.9-7.1,5.2c0,2.8,2.1,4.1,9.5,6.1
				c6.1,1.5,15.5,2.9,15.5,12.5c0,7.8-6.4,13.1-17,13.1c-10.8,0-18.2-5.7-18.6-16.1h9.6C381.4,184.7,385.1,187.8,390.1,187.8z"/>
		</g>
	</g>
	<g>
		<g>
			<path class="st0" d="M271.8,186.5v7.8h-30.2v-42.4h9.5v34.6H271.8z"/>
			<path class="st0" d="M307.8,185.2h-17.6l-3.3,9H277l17-42.4h10.1l17,42.4h-9.9L307.8,185.2z M305.2,178.1l-6.2-16.7l-6.2,16.7
				H305.2z"/>
			<path class="st0" d="M364.7,182.8c0,6.9-5.6,11.4-14.2,11.4h-22.2v-42.4h22.2c7.9,0,13.1,4.3,13.1,10.5c0,5.5-3.5,8.6-8.8,10.2
				C360.8,173.7,364.7,176.9,364.7,182.8z M337.8,169.4h9.7c5,0,7.1-2.4,7.1-5.4c0-3.3-2.5-5.4-6.2-5.4h-10.6V169.4z M355.6,181.6
				c0-3-2.1-6-7.1-6h-10.7v11.9h10.4C352.1,187.5,355.6,185.6,355.6,181.6z"/>
			<path class="st0" d="M390.1,187.8c4.2,0,7.5-1.9,7.5-5.5c0-3.6-3.6-4.7-8.9-6c-7.8-1.9-16-3.7-16-12.6c0-7.9,6-12.7,16.3-12.7
				c10.1,0,16.7,4.5,17.4,14.4h-9.4c-0.5-5.1-3.5-7.4-7.9-7.4c-4.4,0-7.1,1.9-7.1,5.2c0,2.8,2.1,4.1,9.5,6.1
				c6.1,1.5,15.5,2.9,15.5,12.5c0,7.8-6.4,13.1-17,13.1c-10.8,0-18.2-5.7-18.6-16.1h9.6C381.4,184.7,385.1,187.8,390.1,187.8z"/>
		</g>
	</g>
</g>
<g>
	<g>
		<path class="st0" d="M283.9,87.3v40.9h-8.8V101l-11.8,16h-0.9l-11.8-16v27.2h-8.8V87.3h8.4l12.7,17.9l12.7-17.9H283.9z"/>
		<path class="st0" d="M303.4,94.3v9.4H324v6.8h-20.6v10.5h22v7.1h-31.1V87.3h31.1v7.1H303.4z"/>
		<path class="st0" d="M349.5,121.9c4.1,0,7.2-1.9,7.2-5.3c0-3.5-3.4-4.5-8.6-5.8c-7.5-1.8-15.4-3.6-15.4-12.1
			c0-7.6,5.8-12.2,15.7-12.2c9.7,0,16.1,4.4,16.8,13.9h-9.1c-0.5-5-3.3-7.1-7.6-7.1c-4.2,0-6.9,1.9-6.9,5c0,2.7,2,3.9,9.2,5.8
			c5.9,1.5,14.9,2.8,14.9,12c0,7.5-6.1,12.6-16.4,12.6c-10.4,0-17.6-5.5-17.9-15.5h9.3C341,118.9,344.7,121.9,349.5,121.9z"/>
		<path class="st0" d="M409.8,87.3v40.9h-9.2v-16.9h-17.3v16.9h-9.2V87.3h9.2v16.5h17.3V87.3H409.8z"/>
	</g>
	<g>
		<path class="st0" d="M283.9,87.3v40.9h-8.8V101l-11.8,16h-0.9l-11.8-16v27.2h-8.8V87.3h8.4l12.7,17.9l12.7-17.9H283.9z"/>
		<path class="st0" d="M303.4,94.3v9.4H324v6.8h-20.6v10.5h22v7.1h-31.1V87.3h31.1v7.1H303.4z"/>
		<path class="st0" d="M349.5,121.9c4.1,0,7.2-1.9,7.2-5.3c0-3.5-3.4-4.5-8.6-5.8c-7.5-1.8-15.4-3.6-15.4-12.1
			c0-7.6,5.8-12.2,15.7-12.2c9.7,0,16.1,4.4,16.8,13.9h-9.1c-0.5-5-3.3-7.1-7.6-7.1c-4.2,0-6.9,1.9-6.9,5c0,2.7,2,3.9,9.2,5.8
			c5.9,1.5,14.9,2.8,14.9,12c0,7.5-6.1,12.6-16.4,12.6c-10.4,0-17.6-5.5-17.9-15.5h9.3C341,118.9,344.7,121.9,349.5,121.9z"/>
		<path class="st0" d="M409.8,87.3v40.9h-9.2v-16.9h-17.3v16.9h-9.2V87.3h9.2v16.5h17.3V87.3H409.8z"/>
	</g>
</g>
<path class="st0" d="M107.4,214.8C48.2,214.8,0,166.6,0,107.4S48.2,0,107.4,0s107.4,48.2,107.4,107.4S166.6,214.8,107.4,214.8z
	 M107.4,6.9C52,6.9,6.9,52,6.9,107.4c0,55.4,45.1,100.5,100.5,100.5c55.4,0,100.5-45.1,100.5-100.5C207.9,52,162.8,6.9,107.4,6.9z"
	/>
<linearGradient id="SVGID_1_" gradientUnits="userSpaceOnUse" x1="107.3899" y1="18.9458" x2="107.3899" y2="195.8344">
	<stop  offset="0" style="stop-color:#00D7FF"/>
	<stop  offset="0.2064" style="stop-color:#469CE2"/>
	<stop  offset="0.419" style="stop-color:#8765C7"/>
	<stop  offset="0.6126" style="stop-color:#BB3AB1"/>
	<stop  offset="0.78" style="stop-color:#E01AA2"/>
	<stop  offset="0.9148" style="stop-color:#F70798"/>
	<stop  offset="1" style="stop-color:#FF0095"/>
</linearGradient>
<path class="st1" d="M184.1,139c-1.6-3-4.1-4.9-7.1-5.7l-0.3-51.1c0.8-0.3,1.6-0.5,2.2-1.1c3-1.6,5.2-4.4,6-7.9
	c0.8-3.3,0.5-6.8-1.4-9.8c-3.5-6-11.4-8.2-17.4-4.6c-0.8,0.5-1.4,0.8-2.2,1.4l-44.6-25.6c0.8-3,0.3-6.3-1.4-9.2
	c-3.5-6-11.4-8.2-17.4-4.6c-3,1.6-5.2,4.4-6,7.9c-0.5,2.2-0.5,4.4,0,6.5L50.8,60.4c-1.6-1.6-3.5-2.7-5.7-3.3
	c-3.3-0.8-6.8-0.5-9.8,1.4c-3,1.6-5.2,4.4-6,7.9c-0.8,3.3-0.5,6.8,1.4,9.8c1.6,2.7,4.4,4.9,7.1,5.7l0.3,51.7
	c-0.8,0.3-1.6,0.5-2.4,1.1c-6,3.5-8.2,11.4-4.6,17.4c1.6,3,4.4,5.2,7.9,6c1.1,0.3,2.2,0.5,3.3,0.5c2.2,0,4.4-0.5,6.5-1.6
	c0.8-0.5,1.6-1.1,2.2-1.6l44.6,25.6c-0.5,3-0.3,6,1.4,8.7c2.4,4.1,6.8,6.3,11.2,6.3c2.2,0,4.4-0.5,6.5-1.6c3-1.6,5.2-4.4,6-7.9
	c0.5-1.9,0.5-4.1,0-6l44.1-25.6c1.6,1.4,3.3,2.4,5.2,3c1.1,0.3,2.2,0.5,3.3,0.5c2.2,0,4.4-0.5,6.5-1.6c3-1.6,5.2-4.4,6-7.9
	C186.3,145.5,186,142,184.1,139z M137.7,132.6c-0.6-1.4-1.5-2.6-2.6-3.6c2.4-5.1,4.8-10.2,7.4-15.2c0.5,0.1,1.1,0.1,1.7,0.1
	c1.5,0,2.9-0.3,4.2-0.8c6.6,6.9,11.8,14.6,15.6,23c-0.3,0.3-0.7,0.7-1,1.1C157.2,135.7,148.7,133.8,137.7,132.6z M109.5,170.2
	c-2-0.2-4.1,0-6,0.7c-4.7-9.4-8.3-18.4-10.9-27c1.7-1.2,3-2.9,3.7-4.9c8-0.6,15.4-0.7,22.2-0.6c0.4,1.8,1.2,3.5,2.4,4.8
	C116.5,153.6,112.5,163,109.5,170.2z M52.9,138.7c-1.2-1.9-2.8-3.4-4.7-4.4c6.8-20.9,17.5-37,32-48.1c0.2,0.1,0.4,0.2,0.6,0.3
	c-1.5,11.6-1.6,25.2,0.9,40.4c-2.6,1.5-4.5,4.2-4.9,7.3C69.2,135.3,61.2,136.8,52.9,138.7z M44.8,82.1c1.1-0.3,2.2-0.8,3.3-1.4
	c3-1.6,5.2-4.4,6-7.9c0-0.1,0-0.2,0-0.3c6,0.8,13.3,1.9,21.3,3.7c0,0.3-0.1,0.7-0.1,1c0,1.2,0.2,2.3,0.6,3.3
	C62.6,91,52.3,105.1,45,122.8L44.8,82.1z M169.1,82.1l0.3,49.6c-4-8.3-9.3-15.9-15.9-22.8c1.2-1.8,1.9-3.9,1.9-6.2
	c0-2.9-1.1-5.6-3-7.6c3.5-6.2,7-11.8,10.4-16.6C164.6,80.4,166.8,81.5,169.1,82.1z M128.5,126.5c-3.7,0-6.9,2-8.6,5
	c-7.2-0.2-15,0-23.5,0.6c-1.3-3.3-4.3-5.8-7.9-6.4c-2.4-14.2-2.2-26.9-0.9-37.8c3.5-0.5,6.5-2.8,8-5.9c14.6,4.9,27.2,11,37.7,18.3
	c-0.2,0.8-0.3,1.6-0.3,2.5c0,3.2,1.3,6,3.4,8.1c-2.6,5.2-5.2,10.5-7.6,15.7C128.6,126.5,128.5,126.5,128.5,126.5z M159.5,71.4
	c-4.2,5.5-8.6,12.5-13,20.2c-0.7-0.2-1.5-0.2-2.3-0.2c-2.9,0-5.6,1.1-7.6,2.9c-10.8-7.5-23.7-13.8-38.3-18.8
	c24.1-10.2,49.3-7.9,61.1-5.9C159.3,70.3,159.4,70.9,159.5,71.4z M84.7,66.9c-2.4,0.3-4.6,1.4-6.2,3.1c-8.7-2-16.6-3.3-23-4.1
	l38.2-22.3C90.6,49.7,87.3,57.6,84.7,66.9z M115.6,40.8l36.7,21c-14.5-1.5-36.9-1.5-58.7,8.4c-0.6-0.7-1.4-1.3-2.2-1.8
	c3-10.3,6.8-18.8,10.1-24.9c0.6,0.3,1.2,0.5,1.8,0.6c1.1,0.3,2.2,0.5,3.3,0.5c2.2,0,4.4-0.5,6.5-1.6C114.2,42.4,115,41.6,115.6,40.8
	z M54.6,149c0.3-1.3,0.5-2.5,0.4-3.8c8.1-1.8,15.7-3.2,23.1-4.2c1.7,2.7,4.6,4.6,8,4.8c2.7,8.8,6.3,18.1,11.1,27.6L54.6,149z
	 M117.2,174.1c-0.4-0.4-0.8-0.8-1.3-1.1c2.9-7,6.8-16.3,11.3-26.5c0.4,0.1,0.8,0.1,1.3,0.1c4.4,0,8.1-2.9,9.5-6.8
	c9.6,1.1,17.2,2.7,22.4,4c-0.2,1.7-0.1,3.4,0.3,5L117.2,174.1z"/>
<g>
	<path class="st0" d="M283.9,38.2v23.5H277l-0.6-5.7c-2.7,4-7,6.4-13.3,6.4c-13.1,0-21.5-9-21.5-22.3c0-13.4,8.7-22.4,21.9-22.4
		c10.9,0,18.4,5.9,20.2,15.6h-10.1c-1.2-4.7-4.5-7.8-10.1-7.8c-7.5,0-11.9,6.4-11.9,14.6c0,8.7,4.5,14.6,12.3,14.6
		c5.6,0,10.3-3.3,11.3-9.3H263v-7.1H283.9z"/>
	<path class="st0" d="M324.9,53.8v7.9h-30.9V18.4h9.7v35.4H324.9z"/>
	<path class="st0" d="M373.6,40.1c0,12.9-9.1,22.3-22.1,22.3c-12.9,0-22.1-9.5-22.1-22.3c0-13,9.1-22.5,22.1-22.5
		C364.5,17.6,373.6,27.2,373.6,40.1z M339.4,40.1c0,8.4,4.7,14.3,12.1,14.3c7.4,0,12.1-5.9,12.1-14.3c0-8.5-4.7-14.5-12.1-14.5
		C344.1,25.7,339.4,31.6,339.4,40.1z"/>
	<path class="st0" d="M419.4,50c0,7-5.7,11.7-14.5,11.7h-22.6V18.4H405c8.1,0,13.4,4.4,13.4,10.7c0,5.6-3.6,8.8-9,10.4
		C415.6,40.8,419.4,44,419.4,50z M392.1,36.3h10c5.1,0,7.2-2.5,7.2-5.5c0-3.4-2.5-5.5-6.4-5.5h-10.8V36.3z M410.2,48.8
		c0-3.1-2.1-6.1-7.2-6.1h-10.9v12.2h10.6C406.6,54.9,410.2,52.9,410.2,48.8z"/>
	<path class="st0" d="M456,52.5h-17.9l-3.4,9.2h-10.1l17.3-43.3h10.3l17.4,43.3h-10.1L456,52.5z M453.4,45.2L447,28.2l-6.3,17.1
		H453.4z"/>
	<path class="st0" d="M507.8,53.8v7.9h-30.9V18.4h9.7v35.4H507.8z"/>
</g>
</svg>
