<?xml version="1.0" encoding="utf-8"?>
<!-- Generator: Adobe Illustrator 23.0.4, SVG Export Plug-In . SVG Version: 6.00 Build 0)  -->
<svg version="1.1" id="Layer_1" xmlns="http://www.w3.org/2000/svg" xmlns:xlink="http://www.w3.org/1999/xlink" x="0px" y="0px"
	 viewBox="0 0 549.6 226.7" style="enable-background:new 0 0 549.6 226.7;" xml:space="preserve">
<style type="text/css">
	.st0{fill:#FFFFFF;}
	.st1{enable-background:new    ;}
	.st2{fill:#AC519F;}
	.st3{fill:#F0E914;}
	.st4{fill-rule:evenodd;clip-rule:evenodd;fill:#F26522;}
	.st5{fill:#02BBB9;}
	.st6{fill:#F26522;}
</style>
<g>
	<path class="st0" d="M189.4,73.1h-12.2c-0.6,0-1-0.4-1-1s0.4-1,1-1h11.5c0.3-0.8,0.5-1.7,0.5-2.6c0-3.9-3.6-7.4-7.7-7.4
		c-0.7,0-1.5,0.2-2.2,0.4c-0.5,0.2-1.1-0.1-1.3-0.6c-0.2-0.5,0.1-1.1,0.6-1.3c0.9-0.4,2-0.6,3-0.6c5.3,0,9.7,4.3,9.7,9.4
		c0,1.4-0.3,2.9-0.9,4C190.2,72.9,189.8,73.1,189.4,73.1z"/>
	<path class="st0" d="M178.8,61.6c-0.5,0-0.9-0.3-1-0.8c-1.4-6.6-6.3-10.8-12.7-10.8c-0.6,0-1.1,0-1.6,0.1c-0.5,0.2-1.1-0.1-1.3-0.6
		c-0.2-0.5,0.1-1.1,0.6-1.3c0.8-0.3,1.5-0.3,2.2-0.3c7.3,0,13.2,5,14.7,12.4c0.1,0.5-0.2,1.1-0.8,1.2
		C179,61.6,178.9,61.6,178.8,61.6z"/>
	<path class="st0" d="M123.2,51c-0.1,0-0.1,0-0.2,0c-0.5-0.1-0.9-0.7-0.8-1.2C124.4,40,133.5,33,143.8,33c10.2,0,18,6,20.4,15.8
		c0.1,0.5-0.2,1.1-0.7,1.2c-0.5,0.1-1.1-0.2-1.2-0.7C160.1,40.4,153,35,143.8,35c-9.4,0-17.7,6.4-19.6,15.2
		C124.1,50.7,123.7,51,123.2,51z"/>
	<path class="st0" d="M100.2,62c0,0-0.1,0-0.1,0c-0.5-0.1-0.9-0.5-0.9-1.1c0.8-8.2,7.5-14.2,15.9-14.2c3.2,0,6.2,0.9,8.6,2.5
		c0.5,0.3,0.6,0.9,0.3,1.4c-0.3,0.5-0.9,0.6-1.4,0.3c-2-1.4-4.7-2.1-7.4-2.1c-7.3,0-13.2,5.2-13.9,12.4
		C101.2,61.6,100.7,62,100.2,62z"/>
	<path class="st0" d="M104.2,73H90.8c-0.4,0-0.8-0.2-0.9-0.6c-0.4-1.1-0.7-2.3-0.7-3.6c0-5.6,3.2-9.4,7.9-9.4c1.2,0,2.5,0.3,3.3,0.7
		c0.5,0.2,0.7,0.8,0.4,1.3c-0.2,0.5-0.8,0.7-1.3,0.4c-0.6-0.3-1.5-0.5-2.5-0.5c-3.6,0-5.9,2.9-5.9,7.4c0,0.8,0.1,1.5,0.3,2.2h12.7
		c0.6,0,1,0.4,1,1S104.8,73,104.2,73z"/>
	<path class="st0" d="M189.2,73h-21c-0.6,0-1-0.4-1-1s0.4-1,1-1h21c0.6,0,1,0.4,1,1S189.8,73,189.2,73z"/>
	<path class="st0" d="M121.2,73h-9c-0.6,0-1-0.4-1-1s0.4-1,1-1h9c0.6,0,1,0.4,1,1S121.8,73,121.2,73z"/>
	<path class="st0" d="M153.2,73h-22c-0.6,0-1-0.4-1-1s0.4-1,1-1h22c0.6,0,1,0.4,1,1S153.8,73,153.2,73z"/>
</g>
<g>
	<g>
		<g>
			<g class="st1">
				<path class="st0" d="M29.9,60.2h5.5v6c-0.7,0.7-1.6,1.2-2.6,1.6s-2.1,0.6-3.1,0.6c-1.1,0-2.1-0.2-3-0.5
					c-0.8-0.4-1.5-0.9-2.1-1.5s-1-1.4-1.3-2.4c-0.3-0.9-0.4-1.9-0.4-3.1s0.2-2.2,0.5-3.1s0.7-1.7,1.3-2.4c0.6-0.7,1.3-1.2,2.1-1.5
					s1.7-0.5,2.7-0.5c0.9,0,1.7,0.1,2.4,0.3c0.7,0.2,1.2,0.5,1.7,0.9s0.8,0.9,1.1,1.4s0.5,1.1,0.6,1.7l-3,0.4
					c-0.1-0.4-0.2-0.7-0.3-0.9s-0.3-0.5-0.5-0.7s-0.5-0.3-0.8-0.4S30,56,29.5,56c-1.2,0-2,0.4-2.6,1.3S26,59.4,26,61
					s0.3,2.8,0.9,3.7c0.6,0.9,1.5,1.3,2.8,1.3c0.6,0,1.2-0.1,1.6-0.2c0.5-0.1,0.9-0.3,1.3-0.6v-2.4h-2.7V60.2z"/>
			</g>
		</g>
	</g>
</g>
<g>
	<g>
		<g>
			<g class="st1">
				<path class="st0" d="M233.8,53.8h9.4v2.6h-6.4v3.4h6v2.6h-6v5.8h-3V53.8z"/>
			</g>
		</g>
	</g>
</g>
<g>
	<g>
		<g>
			<g class="st1">
				<path class="st0" d="M357.6,53.8h9.7v2.5h-6.8v3.1h6.4V62h-6.4v3.5h7.2l-0.3,2.5h-9.9L357.6,53.8L357.6,53.8z"/>
			</g>
		</g>
	</g>
</g>
<g>
	<g>
		<g>
			<g class="st1">
				<path class="st0" d="M422.3,118.8h5.3c2.2,0,3.9,0.6,5.1,1.8s1.8,2.9,1.8,5.3c0,1.2-0.2,2.2-0.5,3.1c-0.3,0.9-0.8,1.6-1.5,2.3
					s-1.4,1.1-2.3,1.4s-2,0.5-3.1,0.5h-4.8V118.8z M427.2,130.5c0.8,0,1.4-0.1,2-0.3s1-0.5,1.3-1c0.3-0.4,0.6-0.9,0.8-1.5
					c0.2-0.6,0.2-1.2,0.2-1.9s-0.1-1.3-0.2-1.9c-0.1-0.6-0.4-1-0.7-1.4s-0.7-0.7-1.2-0.9s-1.1-0.3-1.8-0.3h-2.4v9.2L427.2,130.5
					L427.2,130.5z"/>
			</g>
		</g>
	</g>
</g>
<g>
	<g>
		<g>
			<g class="st1">
				<path class="st0" d="M170.7,118.8h2.8l5.4,14.3h-3.2l-1.1-3.3h-5l-1.1,3.3h-3.1L170.7,118.8z M173.8,127.3l-1.7-5.1l-1.7,5.1
					H173.8z"/>
			</g>
		</g>
	</g>
</g>
<g>
	<g>
		<g>
			<g class="st1">
				<path class="st0" d="M368.7,201.1c-0.1,0.8-0.2,1.5-0.5,2.1s-0.7,1.2-1.2,1.7s-1.1,0.8-1.8,1.1s-1.6,0.4-2.5,0.4
					c-1.1,0-2-0.2-2.9-0.5c-0.8-0.4-1.5-0.9-2.1-1.5c-0.6-0.7-1-1.4-1.2-2.4c-0.3-0.9-0.4-1.9-0.4-3.1c0-1.2,0.2-2.2,0.5-3.1
					s0.7-1.7,1.3-2.4s1.3-1.2,2.1-1.5s1.7-0.5,2.8-0.5c0.9,0,1.7,0.1,2.4,0.3c0.7,0.2,1.2,0.6,1.7,1s0.8,0.9,1.1,1.5
					c0.3,0.6,0.5,1.3,0.6,2l-3,0.4c-0.1-0.8-0.4-1.5-0.9-2c-0.4-0.5-1.1-0.7-2-0.7c-1.1,0-2,0.4-2.6,1.3c-0.6,0.9-0.9,2.1-0.9,3.7
					c0,1.6,0.3,2.8,0.9,3.7s1.5,1.3,2.6,1.3c0.9,0,1.6-0.2,2-0.7s0.7-1.1,0.8-2h3.2V201.1z"/>
			</g>
		</g>
	</g>
</g>
<g>
	<g>
		<g>
			<g class="st1">
				<path class="st0" d="M233.2,191.8h5.1c1.1,0,1.9,0.1,2.6,0.3s1.2,0.5,1.6,0.8s0.7,0.8,0.8,1.2c0.2,0.5,0.2,1,0.2,1.5
					c0,0.6-0.1,1.1-0.4,1.6s-0.7,0.9-1.4,1.3c0.4,0.2,0.8,0.5,1,0.7c0.3,0.2,0.5,0.5,0.6,0.8s0.3,0.6,0.3,0.9
					c0.1,0.3,0.1,0.6,0.1,0.9c0,0.6-0.1,1.2-0.3,1.7c-0.2,0.5-0.5,1-0.9,1.4s-1,0.7-1.7,0.9s-1.5,0.3-2.5,0.3h-5.5v-14.3H233.2z
					 M238.6,197.4c0.8,0,1.3-0.1,1.6-0.4c0.3-0.3,0.4-0.7,0.4-1.3s-0.2-1-0.6-1.2s-1-0.4-1.9-0.4h-2.2v3.3L238.6,197.4L238.6,197.4z
					 M238.5,203.7c0.5,0,0.9,0,1.2-0.1c0.3-0.1,0.6-0.2,0.8-0.4c0.2-0.2,0.3-0.4,0.4-0.6c0.1-0.2,0.1-0.5,0.1-0.8
					c0-0.6-0.2-1.1-0.5-1.4c-0.3-0.3-0.9-0.5-1.8-0.5h-2.8v3.9L238.5,203.7L238.5,203.7z"/>
			</g>
		</g>
	</g>
</g>
<path class="st2" d="M63.8,27.6L63.8,27.6v-0.2l0,0l0,0c0,0,0,0,0-0.1c0,0,0-0.1-0.1-0.1c0,0,0-0.1-0.1-0.1l0,0c0,0,0,0-0.1-0.1
	c0,0-0.1,0-0.1-0.1h-0.1l0,0l0,0h-0.1h-0.1l0,0H21.8c-0.1,0-0.2,0-0.4,0.1c-0.1,0-0.2,0.1-0.3,0.2l-13,12.7C8,40,8,40.1,7.9,40.2
	v0.1c0,0.1,0,0.2,0,0.2s0,0,0,0.1v40.3c0,0.1,0,0.2,0.1,0.3c0.1,0.2,0.3,0.4,0.5,0.5c0.1,0,0.2,0.1,0.4,0.1H50c0.1,0,0.2,0,0.4-0.1
	c0.1,0,0.2-0.1,0.3-0.2l13.1-12.8c0.1-0.1,0.1-0.2,0.2-0.3c0-0.1,0.1-0.2,0.1-0.3L63.8,27.6C63.8,27.7,63.8,27.7,63.8,27.6z
	 M48.8,45.1v1.8v3.7v1.8v3.7v1.8v3.7v1.8v16.5H10.3H9.7v-0.6V41.4h16.8h1.9h3.7H34h3.7h1.9h3.7h1.9h3.7L48.8,45.1L48.8,45.1z"/>
<path class="st3" d="M206.8,93L206.8,93v-0.2l0,0l0,0c0,0,0,0,0-0.1c0,0,0-0.1-0.1-0.1c0,0,0-0.1-0.1-0.1l0,0c0,0,0,0-0.1-0.1
	c0,0-0.1,0-0.1-0.1h-0.1l0,0l0,0h-0.1h-0.1l0,0H165c-0.1,0-0.2,0-0.4,0.1c-0.1,0-0.2,0.1-0.3,0.2l-13.1,12.8
	c-0.1,0.1-0.1,0.2-0.2,0.3v0.1c0,0.1,0,0.2,0,0.2s0,0,0,0.1v40.3c0,0.1,0,0.2,0.1,0.3c0.1,0.2,0.3,0.4,0.5,0.5
	c0.1,0,0.2,0.1,0.4,0.1h41.1c0.1,0,0.2,0,0.4-0.1c0.1,0,0.2-0.1,0.3-0.2l13.1-12.8c0.1-0.1,0.1-0.2,0.2-0.3c0-0.1,0.1-0.2,0.1-0.3
	L206.8,93L206.8,93z M191.9,110.4v1.8v3.7v1.8v3.7v1.8v3.7v1.8v16.5h-38.6h-0.6v-0.6v-37.9h16.8h1.9h3.7h1.9h3.7h1.9h3.7h1.9h3.7
	L191.9,110.4L191.9,110.4z"/>
<path class="st4" d="M462.5,93L462.5,93v-0.2l0,0l0,0c0,0,0,0,0-0.1c0,0,0-0.1-0.1-0.1c0,0,0-0.1-0.1-0.1l0,0c0,0,0,0-0.1-0.1
	c0,0-0.1,0-0.1-0.1H462l0,0l0,0h-0.1h-0.1l0,0h-41.1c-0.1,0-0.2,0-0.4,0.1c-0.1,0-0.2,0.1-0.3,0.2l-13.3,12.6
	c-0.1,0.1-0.1,0.2-0.2,0.3v0.1c0,0.1,0,0.2,0,0.2s0,0,0,0.1v40.3c0,0.1,0,0.2,0.1,0.3c0.1,0.2,0.3,0.4,0.5,0.5
	c0.1,0,0.2,0.1,0.4,0.1h41.1c0.1,0,0.2,0,0.4-0.1c0.1,0,0.2-0.1,0.3-0.2l13.1-12.8c0.1-0.1,0.1-0.2,0.2-0.3c0-0.1,0.1-0.2,0.1-0.3
	L462.5,93L462.5,93z M447.5,110.4v1.8v3.7v1.8v3.7v1.8v3.7v1.8v16.5h-38.6h-0.6v-0.6v-37.9h16.8h1.9h3.7h1.9h3.7h1.9h3.7h1.9h3.7
	V110.4z"/>
<path class="st5" d="M272.9,28L272.9,28v-0.2l0,0l0,0c0,0,0,0,0-0.1c0,0,0-0.1-0.1-0.1c0,0,0-0.1-0.1-0.1l0,0c0,0,0,0-0.1-0.1
	c0,0-0.1,0-0.1-0.1h-0.1l0,0l0,0h-0.1h-0.1l0,0h-41.1c-0.1,0-0.2,0-0.4,0.1c-0.1,0-0.2,0.1-0.3,0.2l-13.1,12.8
	c-0.1,0.1-0.1,0.2-0.2,0.3v0.1c0,0.1,0,0.2,0,0.2s0,0,0,0.1v40.3c0,0.1,0,0.2,0.1,0.3c0.1,0.2,0.3,0.4,0.5,0.5
	c0.1,0,0.2,0.1,0.4,0.1h41.1c0.1,0,0.2,0,0.4-0.1c0.1,0,0.2-0.1,0.3-0.2L273,69.2c0.1-0.1,0.1-0.2,0.2-0.3c0-0.1,0.1-0.2,0.1-0.3
	L272.9,28L272.9,28z M258,45.5v1.8V51v1.8v3.7v1.8V62v1.8v16.5h-38.6h-0.7v-0.6V41.8h16.8h1.9h3.7h1.9h3.7h1.9h3.7h1.9h3.7L258,45.5
	L258,45.5z"/>
<path class="st5" d="M396.8,28L396.8,28v-0.2l0,0l0,0c0,0,0,0,0-0.1c0,0,0-0.1-0.1-0.1c0,0,0-0.1-0.1-0.1l0,0c0,0,0,0-0.1-0.1
	c0,0-0.1,0-0.1-0.1h-0.1l0,0l0,0h-0.1h-0.1l0,0H355c-0.1,0-0.2,0-0.4,0.1c-0.1,0-0.2,0.1-0.3,0.2l-13.1,12.8
	c-0.1,0.1-0.1,0.2-0.2,0.3v0.1c0,0.1,0,0.2,0,0.2s0,0,0,0.1v40.3c0,0.1,0,0.2,0.1,0.3c0.1,0.2,0.3,0.4,0.5,0.5
	c0.1,0,0.2,0.1,0.4,0.1h41.1c0.1,0,0.2,0,0.4-0.1c0.1,0,0.2-0.1,0.3-0.2l13.1-12.8c0.1-0.1,0.1-0.2,0.2-0.3c0-0.1,0.1-0.2,0.1-0.3
	L396.8,28L396.8,28z M381.8,45.5v1.8V51v1.8v3.7v1.8V62v1.8v16.5h-38.6h-0.6v-0.6V41.8h16.8h1.9h3.7h1.9h3.7h1.9h3.7h1.9h3.7V45.5z"
	/>
<path class="st5" d="M272.9,165.8v-0.1v-0.1l0,0l0,0c0,0,0,0,0-0.1c0,0,0-0.1-0.1-0.1c0,0,0-0.1-0.1-0.1l0,0c0,0,0,0-0.1-0.1
	c0,0-0.1,0-0.1-0.1h-0.1l0,0l0,0h-0.1h-0.1l0,0h-41.1c-0.1,0-0.2,0-0.4,0.1c-0.1,0-0.2,0.1-0.3,0.2l-13.1,12.8
	c-0.1,0.1-0.1,0.2-0.2,0.3v0.1c0,0.1,0,0.2,0,0.2s0,0,0,0.1v40.3c0,0.1,0,0.2,0.1,0.3c0.1,0.2,0.3,0.4,0.5,0.5
	c0.1,0,0.2,0.1,0.4,0.1h41.1c0.1,0,0.2,0,0.4-0.1c0.1,0,0.2-0.1,0.3-0.2L273,207c0.1-0.1,0.1-0.2,0.2-0.3c0-0.1,0.1-0.2,0.1-0.3
	L272.9,165.8L272.9,165.8z M258,183.3v1.8v3.7v1.8v3.7v1.8v3.7v1.8v16.5h-38.6h-0.7v-0.6v-37.9h16.8h1.9h3.7h1.9h3.7h1.9h3.7h1.9
	h3.7L258,183.3L258,183.3z"/>
<path class="st5" d="M396.8,165.8v-0.1v-0.1l0,0l0,0c0,0,0,0,0-0.1c0,0,0-0.1-0.1-0.1c0,0,0-0.1-0.1-0.1l0,0c0,0,0,0-0.1-0.1
	c0,0-0.1,0-0.1-0.1h-0.1l0,0l0,0h-0.1h-0.1l0,0H355c-0.1,0-0.2,0-0.4,0.1c-0.1,0-0.2,0.1-0.3,0.2l-13.1,12.8
	c-0.1,0.1-0.1,0.2-0.2,0.3v0.1c0,0.1,0,0.2,0,0.2s0,0,0,0.1v40.3c0,0.1,0,0.2,0.1,0.3c0.1,0.2,0.3,0.4,0.5,0.5
	c0.1,0,0.2,0.1,0.4,0.1h41.1c0.1,0,0.2,0,0.4-0.1c0.1,0,0.2-0.1,0.3-0.2l13.1-12.8c0.1-0.1,0.1-0.2,0.2-0.3c0-0.1,0.1-0.2,0.1-0.3
	L396.8,165.8L396.8,165.8z M381.8,183.3v1.8v3.7v1.8v3.7v1.8v3.7v1.8v16.5h-38.6h-0.6v-0.6v-37.9h16.8h1.9h3.7h1.9h3.7h1.9h3.7h1.9
	h3.7V183.3z"/>
<g>
	<path class="st2" d="M7.4,91.5h1l2.4,8.9l2.5-8.9h0.9l2.4,8.9l2.4-8.9h0.9l-2.8,10h-1l-2.4-8.9l-2.4,8.9h-0.9L7.4,91.5z"/>
	<path class="st2" d="M20.9,91.5h0.9v1.2h-0.9V91.5z M21,94.2h0.8v7.2H21V94.2z"/>
	<path class="st2" d="M24.2,94.9h-1.1v-0.7h1.1v-2H25v2h2v0.7h-2v4.7c0,0.4,0.1,0.7,0.2,0.9c0.1,0.2,0.4,0.4,0.8,0.4
		c0.2,0,0.4,0,0.6-0.1c0.2,0,0.3-0.1,0.4-0.1l0.2,0.7c-0.1,0.1-0.3,0.1-0.5,0.2c-0.2,0-0.5,0.1-0.8,0.1c-0.4,0-0.7-0.1-1-0.2
		c-0.2-0.1-0.4-0.3-0.5-0.6s-0.2-0.5-0.2-0.8c0-0.3,0-0.6,0-0.9V94.9z"/>
	<path class="st2" d="M28.4,94.2h0.8v1.2c0.4-0.5,0.8-0.9,1.3-1.1s0.9-0.3,1.4-0.3c0.8,0,1.4,0.2,1.8,0.7c0.4,0.5,0.6,1.1,0.6,1.9
		v4.8h-0.8v-4.6c0-0.8-0.1-1.3-0.4-1.6c-0.3-0.3-0.7-0.5-1.3-0.5c-0.3,0-0.6,0.1-0.9,0.2c-0.3,0.1-0.6,0.3-0.8,0.5
		c-0.3,0.2-0.5,0.5-0.6,0.7c-0.1,0.3-0.2,0.6-0.2,1.1v4.2h-0.8V94.2z"/>
	<path class="st2" d="M42.3,99.6c-0.1,0.6-0.4,1.1-0.9,1.5c-0.5,0.4-1.2,0.6-2.1,0.6c-1,0-1.8-0.3-2.4-1c-0.6-0.7-0.9-1.6-0.9-2.8
		c0-0.6,0.1-1.2,0.2-1.7c0.2-0.5,0.4-0.9,0.7-1.2c0.3-0.3,0.6-0.6,1-0.7c0.4-0.2,0.8-0.3,1.3-0.3c0.6,0,1,0.1,1.4,0.3
		c0.4,0.2,0.7,0.4,1,0.7c0.2,0.3,0.4,0.7,0.5,1.1c0.1,0.4,0.2,0.9,0.2,1.4V98h-5.5c0,0.4,0.1,0.8,0.2,1.2c0.1,0.4,0.3,0.7,0.5,0.9
		c0.2,0.3,0.5,0.5,0.8,0.6c0.3,0.2,0.7,0.2,1.1,0.2c0.4,0,0.7,0,0.9-0.1c0.3-0.1,0.5-0.2,0.6-0.3c0.2-0.1,0.3-0.3,0.4-0.5
		c0.1-0.2,0.2-0.4,0.2-0.6H42.3z M41.6,97.3c0-0.4,0-0.8-0.1-1.1c-0.1-0.3-0.2-0.6-0.4-0.8c-0.2-0.2-0.4-0.4-0.7-0.6
		c-0.3-0.1-0.6-0.2-1-0.2c-0.7,0-1.3,0.2-1.7,0.7c-0.4,0.4-0.7,1.1-0.8,2H41.6z"/>
	<path class="st2" d="M44.5,99.4c0.1,0.6,0.3,1,0.7,1.2c0.4,0.2,0.9,0.4,1.6,0.4c0.7,0,1.2-0.1,1.5-0.4c0.3-0.3,0.4-0.6,0.4-1
		c0-0.2,0-0.3-0.1-0.5c0-0.1-0.1-0.3-0.2-0.4c-0.1-0.1-0.3-0.2-0.5-0.3c-0.2-0.1-0.5-0.2-0.8-0.2l-0.9-0.1c-0.4-0.1-0.7-0.1-1-0.2
		c-0.3-0.1-0.6-0.2-0.8-0.4c-0.2-0.2-0.4-0.3-0.5-0.6c-0.1-0.2-0.2-0.5-0.2-0.8c0-0.3,0.1-0.6,0.2-0.9s0.3-0.5,0.6-0.6
		c0.2-0.2,0.5-0.3,0.9-0.4c0.3-0.1,0.7-0.1,1.1-0.1c0.5,0,0.9,0,1.2,0.1c0.3,0.1,0.6,0.2,0.8,0.4s0.4,0.4,0.5,0.6
		c0.1,0.2,0.2,0.5,0.3,0.7L48.7,96c-0.1-0.2-0.2-0.4-0.3-0.6c-0.1-0.2-0.2-0.3-0.4-0.4c-0.1-0.1-0.3-0.2-0.6-0.2
		c-0.2-0.1-0.5-0.1-0.8-0.1c-0.4,0-0.7,0-0.9,0.1c-0.3,0.1-0.5,0.2-0.6,0.3c-0.2,0.1-0.3,0.3-0.3,0.4s-0.1,0.3-0.1,0.5
		s0,0.3,0.1,0.5s0.1,0.3,0.2,0.4c0.1,0.1,0.3,0.2,0.5,0.3c0.2,0.1,0.5,0.1,0.8,0.2l1.1,0.2c0.8,0.1,1.3,0.4,1.7,0.7
		c0.4,0.3,0.6,0.8,0.6,1.5c0,0.3-0.1,0.5-0.2,0.8s-0.3,0.5-0.5,0.7c-0.2,0.2-0.5,0.3-0.9,0.4c-0.3,0.1-0.7,0.2-1.2,0.2
		c-0.4,0-0.8,0-1.2-0.1s-0.7-0.2-1-0.4c-0.3-0.2-0.5-0.4-0.7-0.7s-0.3-0.6-0.3-1H44.5z"/>
	<path class="st2" d="M51.7,99.4c0.1,0.6,0.3,1,0.7,1.2c0.4,0.2,0.9,0.4,1.6,0.4c0.7,0,1.2-0.1,1.5-0.4c0.3-0.3,0.4-0.6,0.4-1
		c0-0.2,0-0.3-0.1-0.5c0-0.1-0.1-0.3-0.2-0.4c-0.1-0.1-0.3-0.2-0.5-0.3c-0.2-0.1-0.5-0.2-0.8-0.2l-0.9-0.1c-0.4-0.1-0.7-0.1-1-0.2
		c-0.3-0.1-0.6-0.2-0.8-0.4c-0.2-0.2-0.4-0.3-0.5-0.6c-0.1-0.2-0.2-0.5-0.2-0.8c0-0.3,0.1-0.6,0.2-0.9s0.3-0.5,0.6-0.6
		c0.2-0.2,0.5-0.3,0.9-0.4c0.3-0.1,0.7-0.1,1.1-0.1c0.5,0,0.9,0,1.2,0.1c0.3,0.1,0.6,0.2,0.8,0.4s0.4,0.4,0.5,0.6
		c0.1,0.2,0.2,0.5,0.3,0.7L55.9,96c-0.1-0.2-0.2-0.4-0.3-0.6c-0.1-0.2-0.2-0.3-0.4-0.4c-0.1-0.1-0.3-0.2-0.6-0.2
		c-0.2-0.1-0.5-0.1-0.8-0.1c-0.4,0-0.7,0-0.9,0.1c-0.3,0.1-0.5,0.2-0.6,0.3c-0.2,0.1-0.3,0.3-0.3,0.4s-0.1,0.3-0.1,0.5
		s0,0.3,0.1,0.5s0.1,0.3,0.2,0.4c0.1,0.1,0.3,0.2,0.5,0.3c0.2,0.1,0.5,0.1,0.8,0.2l1.1,0.2c0.8,0.1,1.3,0.4,1.7,0.7
		c0.4,0.3,0.6,0.8,0.6,1.5c0,0.3-0.1,0.5-0.2,0.8s-0.3,0.5-0.5,0.7c-0.2,0.2-0.5,0.3-0.9,0.4c-0.3,0.1-0.7,0.2-1.2,0.2
		c-0.4,0-0.8,0-1.2-0.1s-0.7-0.2-1-0.4c-0.3-0.2-0.5-0.4-0.7-0.7s-0.3-0.6-0.3-1H51.7z"/>
	<path class="st2" d="M8.4,108.3h0.9l5.6,8.7v-8.7h0.8v10h-0.9l-5.6-8.7v8.7H8.4V108.3z"/>
	<path class="st2" d="M21,118.5c-0.5,0-1-0.1-1.4-0.3c-0.4-0.2-0.8-0.4-1-0.8c-0.3-0.3-0.5-0.7-0.7-1.2c-0.2-0.5-0.2-1-0.2-1.6
		c0-0.6,0.1-1.1,0.2-1.6c0.2-0.5,0.4-0.9,0.7-1.2c0.3-0.3,0.7-0.6,1.1-0.8c0.4-0.2,0.9-0.3,1.4-0.3c0.5,0,1,0.1,1.4,0.3
		s0.8,0.4,1.1,0.8c0.3,0.3,0.5,0.7,0.7,1.2c0.2,0.5,0.2,1,0.2,1.6c0,0.6-0.1,1.1-0.2,1.6s-0.4,0.9-0.7,1.2s-0.7,0.6-1.1,0.8
		C22,118.4,21.5,118.5,21,118.5z M21,117.8c0.5,0,0.8-0.1,1.2-0.2c0.3-0.2,0.6-0.4,0.8-0.7c0.2-0.3,0.4-0.6,0.4-1s0.1-0.8,0.1-1.2
		c0-0.4,0-0.8-0.1-1.2s-0.2-0.7-0.4-1c-0.2-0.3-0.5-0.5-0.8-0.7c-0.3-0.2-0.7-0.2-1.2-0.2c-0.4,0-0.8,0.1-1.2,0.2
		c-0.3,0.2-0.6,0.4-0.8,0.7c-0.2,0.3-0.3,0.6-0.4,1c-0.1,0.4-0.1,0.8-0.1,1.2c0,0.4,0,0.8,0.1,1.2c0.1,0.4,0.2,0.7,0.4,1
		c0.2,0.3,0.5,0.5,0.8,0.7C20.2,117.7,20.6,117.8,21,117.8z"/>
	<path class="st2" d="M31.5,117.2c-0.3,0.4-0.7,0.7-1.1,1c-0.4,0.2-0.9,0.4-1.4,0.4c-0.5,0-1-0.1-1.4-0.3s-0.7-0.5-1-0.8
		c-0.3-0.3-0.4-0.7-0.6-1.2c-0.1-0.5-0.2-0.9-0.2-1.4c0-1.2,0.3-2.2,0.9-2.9c0.6-0.7,1.4-1,2.4-1c0.4,0,0.8,0.1,1.2,0.3
		s0.8,0.5,1.1,1v-3.8h0.8v10h-0.8V117.2z M31.6,114.4c0-0.3,0-0.6-0.1-0.8c0-0.2-0.1-0.4-0.2-0.6c-0.1-0.2-0.2-0.3-0.3-0.5
		s-0.3-0.3-0.4-0.4c-0.2-0.2-0.4-0.3-0.7-0.4s-0.5-0.1-0.7-0.1c-0.3,0-0.7,0.1-1,0.2c-0.3,0.1-0.5,0.3-0.7,0.6
		c-0.2,0.3-0.4,0.6-0.5,1c-0.1,0.4-0.2,0.9-0.2,1.5c0,0.6,0.1,1.1,0.2,1.5c0.1,0.4,0.3,0.7,0.5,1c0.2,0.2,0.5,0.4,0.7,0.5
		c0.3,0.1,0.5,0.1,0.8,0.1c0.3,0,0.5,0,0.8-0.1c0.2-0.1,0.5-0.2,0.7-0.4c0.3-0.2,0.6-0.6,0.8-0.9c0.2-0.4,0.3-0.8,0.3-1.4V114.4z"/>
	<path class="st2" d="M40.3,116.4c-0.1,0.6-0.4,1.1-0.9,1.5c-0.5,0.4-1.2,0.6-2.1,0.6c-1,0-1.8-0.3-2.4-1c-0.6-0.7-0.9-1.6-0.9-2.8
		c0-0.6,0.1-1.2,0.2-1.7c0.2-0.5,0.4-0.9,0.7-1.2c0.3-0.3,0.6-0.6,1-0.7c0.4-0.2,0.8-0.3,1.3-0.3c0.6,0,1,0.1,1.4,0.3
		c0.4,0.2,0.7,0.4,1,0.7c0.2,0.3,0.4,0.7,0.5,1.1c0.1,0.4,0.2,0.9,0.2,1.4v0.5h-5.5c0,0.4,0.1,0.8,0.2,1.2c0.1,0.4,0.3,0.7,0.5,0.9
		c0.2,0.3,0.5,0.5,0.8,0.6c0.3,0.2,0.7,0.2,1.1,0.2c0.4,0,0.7,0,0.9-0.1c0.3-0.1,0.5-0.2,0.6-0.3c0.2-0.1,0.3-0.3,0.4-0.5
		c0.1-0.2,0.2-0.4,0.2-0.6H40.3z M39.6,114.1c0-0.4,0-0.8-0.1-1.1c-0.1-0.3-0.2-0.6-0.4-0.8c-0.2-0.2-0.4-0.4-0.7-0.6
		c-0.3-0.1-0.6-0.2-1-0.2c-0.7,0-1.3,0.2-1.7,0.7c-0.4,0.4-0.7,1.1-0.8,2H39.6z"/>
</g>
<g>
	<path class="st3" d="M97.2,127.7c0.1,0.7,0.5,1.3,1,1.6c0.5,0.3,1.2,0.5,2.2,0.5c0.5,0,0.9-0.1,1.3-0.2c0.3-0.1,0.6-0.3,0.8-0.4
		c0.2-0.2,0.3-0.4,0.4-0.7s0.1-0.5,0.1-0.8c0-0.2,0-0.5-0.1-0.7c-0.1-0.2-0.1-0.4-0.3-0.6c-0.1-0.2-0.4-0.3-0.6-0.5
		c-0.3-0.1-0.6-0.2-1.1-0.3l-1.2-0.2c-0.5-0.1-0.9-0.2-1.3-0.3s-0.7-0.3-1-0.5c-0.3-0.2-0.5-0.5-0.6-0.8c-0.1-0.3-0.2-0.7-0.2-1.2
		c0-0.5,0.1-0.9,0.3-1.2s0.4-0.6,0.8-0.8c0.3-0.2,0.7-0.4,1.1-0.5c0.4-0.1,0.9-0.2,1.4-0.2c0.6,0,1.1,0.1,1.6,0.2
		c0.4,0.1,0.8,0.3,1,0.5c0.3,0.2,0.5,0.5,0.6,0.8c0.1,0.3,0.3,0.6,0.4,0.9l-0.8,0.2c-0.1-0.3-0.2-0.5-0.3-0.8s-0.3-0.4-0.5-0.6
		c-0.2-0.2-0.5-0.3-0.8-0.4s-0.7-0.1-1.2-0.1c-0.5,0-0.9,0-1.3,0.1c-0.3,0.1-0.6,0.2-0.8,0.4c-0.2,0.2-0.4,0.4-0.5,0.6
		s-0.1,0.5-0.1,0.8c0,0.3,0,0.5,0.1,0.7s0.2,0.4,0.3,0.5s0.4,0.3,0.6,0.4s0.6,0.2,1,0.3l1.4,0.3c0.5,0.1,0.9,0.2,1.3,0.4
		s0.7,0.3,0.9,0.6c0.2,0.2,0.4,0.5,0.5,0.8s0.2,0.7,0.2,1.1c0,0.4-0.1,0.7-0.2,1.1s-0.4,0.6-0.7,0.9c-0.3,0.3-0.7,0.5-1.1,0.6
		c-0.4,0.1-1,0.2-1.5,0.2c-0.5,0-1-0.1-1.5-0.2s-0.9-0.3-1.2-0.5s-0.6-0.5-0.9-0.9c-0.2-0.4-0.4-0.8-0.4-1.3H97.2z"/>
	<path class="st3" d="M111.5,128.5c-0.1,0.6-0.4,1.1-0.9,1.5c-0.5,0.4-1.2,0.6-2.1,0.6c-1,0-1.8-0.3-2.4-1c-0.6-0.7-0.9-1.6-0.9-2.8
		c0-0.6,0.1-1.2,0.2-1.7c0.2-0.5,0.4-0.9,0.7-1.2s0.6-0.6,1-0.7c0.4-0.2,0.8-0.3,1.3-0.3c0.6,0,1,0.1,1.4,0.3c0.4,0.2,0.7,0.4,1,0.7
		c0.2,0.3,0.4,0.7,0.5,1.1s0.2,0.9,0.2,1.4v0.5h-5.5c0,0.4,0.1,0.8,0.2,1.2c0.1,0.4,0.3,0.7,0.5,0.9c0.2,0.3,0.5,0.5,0.8,0.6
		c0.3,0.2,0.7,0.2,1.1,0.2c0.4,0,0.7,0,0.9-0.1s0.5-0.2,0.6-0.3s0.3-0.3,0.4-0.5c0.1-0.2,0.2-0.4,0.2-0.6H111.5z M110.8,126.3
		c0-0.4,0-0.8-0.1-1.1s-0.2-0.6-0.4-0.8c-0.2-0.2-0.4-0.4-0.7-0.6c-0.3-0.1-0.6-0.2-1-0.2c-0.7,0-1.3,0.2-1.7,0.7
		c-0.4,0.4-0.7,1.1-0.8,2H110.8z"/>
	<path class="st3" d="M113.3,123.2h0.8v1.2c0.4-0.5,0.8-0.9,1.3-1.1c0.4-0.2,0.9-0.3,1.4-0.3c0.8,0,1.4,0.2,1.8,0.7
		c0.4,0.5,0.6,1.1,0.6,1.9v4.8h-0.8v-4.6c0-0.8-0.1-1.3-0.4-1.6c-0.3-0.3-0.7-0.5-1.3-0.5c-0.3,0-0.6,0.1-0.9,0.2
		c-0.3,0.1-0.6,0.3-0.8,0.5c-0.3,0.2-0.5,0.5-0.6,0.7c-0.1,0.3-0.2,0.6-0.2,1.1v4.2h-0.8V123.2z"/>
	<path class="st3" d="M126.5,129.3c-0.3,0.4-0.7,0.7-1.1,1c-0.4,0.2-0.9,0.4-1.4,0.4c-0.5,0-1-0.1-1.4-0.3s-0.7-0.5-1-0.8
		c-0.3-0.3-0.4-0.7-0.6-1.2c-0.1-0.5-0.2-0.9-0.2-1.4c0-1.2,0.3-2.2,0.9-2.9c0.6-0.7,1.4-1,2.4-1c0.4,0,0.8,0.1,1.2,0.3
		s0.8,0.5,1.1,1v-3.8h0.8v10h-0.8V129.3z M126.5,126.5c0-0.3,0-0.6-0.1-0.8c0-0.2-0.1-0.4-0.2-0.6c-0.1-0.2-0.2-0.3-0.3-0.5
		c-0.1-0.1-0.3-0.3-0.4-0.4c-0.2-0.2-0.4-0.3-0.7-0.4c-0.2-0.1-0.5-0.1-0.7-0.1c-0.3,0-0.7,0.1-1,0.2c-0.3,0.1-0.5,0.3-0.7,0.6
		c-0.2,0.3-0.4,0.6-0.5,1c-0.1,0.4-0.2,0.9-0.2,1.5c0,0.6,0.1,1.1,0.2,1.5c0.1,0.4,0.3,0.7,0.5,1c0.2,0.2,0.5,0.4,0.7,0.5
		c0.3,0.1,0.5,0.1,0.8,0.1c0.3,0,0.5,0,0.8-0.1c0.2-0.1,0.5-0.2,0.7-0.4c0.3-0.2,0.6-0.6,0.8-0.9c0.2-0.4,0.3-0.8,0.3-1.4V126.5z"/>
	<path class="st3" d="M135.3,128.5c-0.1,0.6-0.4,1.1-0.9,1.5c-0.5,0.4-1.2,0.6-2.1,0.6c-1,0-1.8-0.3-2.4-1c-0.6-0.7-0.9-1.6-0.9-2.8
		c0-0.6,0.1-1.2,0.2-1.7c0.2-0.5,0.4-0.9,0.7-1.2s0.6-0.6,1-0.7c0.4-0.2,0.8-0.3,1.3-0.3c0.6,0,1,0.1,1.4,0.3c0.4,0.2,0.7,0.4,1,0.7
		c0.2,0.3,0.4,0.7,0.5,1.1s0.2,0.9,0.2,1.4v0.5h-5.5c0,0.4,0.1,0.8,0.2,1.2c0.1,0.4,0.3,0.7,0.5,0.9c0.2,0.3,0.5,0.5,0.8,0.6
		c0.3,0.2,0.7,0.2,1.1,0.2c0.4,0,0.7,0,0.9-0.1s0.5-0.2,0.6-0.3s0.3-0.3,0.4-0.5c0.1-0.2,0.2-0.4,0.2-0.6H135.3z M134.6,126.3
		c0-0.4,0-0.8-0.1-1.1s-0.2-0.6-0.4-0.8c-0.2-0.2-0.4-0.4-0.7-0.6c-0.3-0.1-0.6-0.2-1-0.2c-0.7,0-1.3,0.2-1.7,0.7
		c-0.4,0.4-0.7,1.1-0.8,2H134.6z"/>
	<path class="st3" d="M137.1,123.2h0.8v1.2c0.3-0.4,0.6-0.7,1-1c0.4-0.2,0.8-0.3,1.2-0.3c0.1,0,0.2,0,0.3,0c0.1,0,0.2,0,0.3,0
		l-0.1,0.8c-0.2,0-0.3,0-0.5,0c-0.2,0-0.5,0-0.7,0.1s-0.5,0.2-0.7,0.5c-0.2,0.2-0.4,0.4-0.5,0.7c-0.1,0.3-0.2,0.6-0.2,0.9v4.3h-0.8
		V123.2z"/>
	<path class="st3" d="M96.9,137.2h0.9l5.6,8.7v-8.7h0.8v10h-0.9l-5.6-8.7v8.7h-0.8V137.2z"/>
	<path class="st3" d="M109.5,147.4c-0.5,0-1-0.1-1.4-0.3c-0.4-0.2-0.8-0.4-1-0.8s-0.5-0.7-0.7-1.2c-0.2-0.5-0.2-1-0.2-1.6
		c0-0.6,0.1-1.1,0.2-1.6c0.2-0.5,0.4-0.9,0.7-1.2s0.7-0.6,1.1-0.8c0.4-0.2,0.9-0.3,1.4-0.3c0.5,0,1,0.1,1.4,0.3
		c0.4,0.2,0.8,0.4,1.1,0.8c0.3,0.3,0.5,0.7,0.7,1.2c0.2,0.5,0.2,1,0.2,1.6c0,0.6-0.1,1.1-0.2,1.6c-0.2,0.5-0.4,0.9-0.7,1.2
		s-0.7,0.6-1.1,0.8S110,147.4,109.5,147.4z M109.5,146.7c0.5,0,0.8-0.1,1.2-0.2c0.3-0.2,0.6-0.4,0.8-0.7c0.2-0.3,0.4-0.6,0.4-1
		s0.1-0.8,0.1-1.2c0-0.4,0-0.8-0.1-1.2s-0.2-0.7-0.4-1c-0.2-0.3-0.5-0.5-0.8-0.7c-0.3-0.2-0.7-0.2-1.2-0.2c-0.4,0-0.8,0.1-1.2,0.2
		c-0.3,0.2-0.6,0.4-0.8,0.7c-0.2,0.3-0.3,0.6-0.4,1c-0.1,0.4-0.1,0.8-0.1,1.2c0,0.4,0,0.8,0.1,1.2c0.1,0.4,0.2,0.7,0.4,1
		s0.5,0.5,0.8,0.7C108.7,146.6,109.1,146.7,109.5,146.7z"/>
	<path class="st3" d="M120,146.1c-0.3,0.4-0.7,0.7-1.1,1c-0.4,0.2-0.9,0.4-1.4,0.4c-0.5,0-1-0.1-1.4-0.3s-0.7-0.5-1-0.8
		c-0.3-0.3-0.4-0.7-0.6-1.2c-0.1-0.5-0.2-0.9-0.2-1.4c0-1.2,0.3-2.2,0.9-2.9c0.6-0.7,1.4-1,2.4-1c0.4,0,0.8,0.1,1.2,0.3
		s0.8,0.5,1.1,1v-3.8h0.8v10H120V146.1z M120,143.3c0-0.3,0-0.6-0.1-0.8c0-0.2-0.1-0.4-0.2-0.6c-0.1-0.2-0.2-0.3-0.3-0.5
		c-0.1-0.1-0.3-0.3-0.4-0.4c-0.2-0.2-0.4-0.3-0.7-0.4c-0.2-0.1-0.5-0.1-0.7-0.1c-0.3,0-0.7,0.1-1,0.2c-0.3,0.1-0.5,0.3-0.7,0.6
		c-0.2,0.3-0.4,0.6-0.5,1c-0.1,0.4-0.2,0.9-0.2,1.5c0,0.6,0.1,1.1,0.2,1.5c0.1,0.4,0.3,0.7,0.5,1c0.2,0.2,0.5,0.4,0.7,0.5
		c0.3,0.1,0.5,0.1,0.8,0.1c0.3,0,0.5,0,0.8-0.1c0.2-0.1,0.5-0.2,0.7-0.4c0.3-0.2,0.6-0.6,0.8-0.9c0.2-0.4,0.3-0.8,0.3-1.4V143.3z"/>
	<path class="st3" d="M128.8,145.3c-0.1,0.6-0.4,1.1-0.9,1.5c-0.5,0.4-1.2,0.6-2.1,0.6c-1,0-1.8-0.3-2.4-1c-0.6-0.7-0.9-1.6-0.9-2.8
		c0-0.6,0.1-1.2,0.2-1.7c0.2-0.5,0.4-0.9,0.7-1.2s0.6-0.6,1-0.7c0.4-0.2,0.8-0.3,1.3-0.3c0.6,0,1,0.1,1.4,0.3c0.4,0.2,0.7,0.4,1,0.7
		c0.2,0.3,0.4,0.7,0.5,1.1s0.2,0.9,0.2,1.4v0.5h-5.5c0,0.4,0.1,0.8,0.2,1.2c0.1,0.4,0.3,0.7,0.5,0.9c0.2,0.3,0.5,0.5,0.8,0.6
		c0.3,0.2,0.7,0.2,1.1,0.2c0.4,0,0.7,0,0.9-0.1s0.5-0.2,0.6-0.3s0.3-0.3,0.4-0.5c0.1-0.2,0.2-0.4,0.2-0.6H128.8z M128.1,143.1
		c0-0.4,0-0.8-0.1-1.1c-0.1-0.3-0.2-0.6-0.4-0.8c-0.2-0.2-0.4-0.4-0.7-0.6c-0.3-0.1-0.6-0.2-1-0.2c-0.7,0-1.3,0.2-1.7,0.7
		c-0.4,0.4-0.7,1.1-0.8,2H128.1z"/>
</g>
<g>
	<path class="st6" d="M474,107.4h3.4c0.7,0,1.3,0.1,1.9,0.3c0.6,0.2,1,0.5,1.4,0.9c0.4,0.4,0.7,0.9,0.9,1.5s0.3,1.3,0.3,2.2
		c0,0.8-0.1,1.6-0.3,2.2c-0.2,0.6-0.5,1.2-1,1.6c-0.4,0.4-0.9,0.7-1.5,0.9c-0.6,0.2-1.3,0.3-2,0.3H474V107.4z M477.1,116.6
		c1.3,0,2.3-0.4,2.9-1.1c0.6-0.7,0.9-1.8,0.9-3.2c0-1.4-0.3-2.4-0.9-3.1c-0.6-0.7-1.5-1.1-2.8-1.1h-2.5v8.5H477.1z"/>
	<path class="st6" d="M489.7,115.5c-0.1,0.6-0.4,1.1-0.9,1.5c-0.5,0.4-1.2,0.6-2.1,0.6c-1,0-1.8-0.3-2.4-1c-0.6-0.7-0.9-1.6-0.9-2.8
		c0-0.6,0.1-1.2,0.2-1.7c0.2-0.5,0.4-0.9,0.7-1.2s0.6-0.6,1-0.7s0.8-0.3,1.3-0.3c0.6,0,1,0.1,1.4,0.3c0.4,0.2,0.7,0.4,1,0.7
		c0.2,0.3,0.4,0.7,0.5,1.1c0.1,0.4,0.2,0.9,0.2,1.4v0.5h-5.5c0,0.4,0.1,0.8,0.2,1.2c0.1,0.4,0.3,0.7,0.5,0.9
		c0.2,0.3,0.5,0.5,0.8,0.6s0.7,0.2,1.1,0.2c0.4,0,0.7,0,0.9-0.1s0.5-0.2,0.6-0.3s0.3-0.3,0.4-0.5c0.1-0.2,0.2-0.4,0.2-0.6H489.7z
		 M489,113.3c0-0.4,0-0.8-0.1-1.1s-0.2-0.6-0.4-0.8c-0.2-0.2-0.4-0.4-0.7-0.6c-0.3-0.1-0.6-0.2-1-0.2c-0.7,0-1.3,0.2-1.7,0.7
		c-0.4,0.4-0.7,1.1-0.8,2H489z"/>
	<path class="st6" d="M491.9,115.4c0.1,0.6,0.3,1,0.7,1.2c0.4,0.2,0.9,0.3,1.6,0.3c0.7,0,1.2-0.1,1.5-0.4c0.3-0.3,0.4-0.6,0.4-1
		c0-0.2,0-0.3-0.1-0.5s-0.1-0.3-0.2-0.4c-0.1-0.1-0.3-0.2-0.5-0.3c-0.2-0.1-0.5-0.2-0.8-0.2l-0.9-0.1c-0.4-0.1-0.7-0.1-1-0.2
		c-0.3-0.1-0.6-0.2-0.8-0.4c-0.2-0.2-0.4-0.3-0.5-0.6c-0.1-0.2-0.2-0.5-0.2-0.8c0-0.3,0.1-0.6,0.2-0.9c0.1-0.3,0.3-0.5,0.6-0.6
		c0.2-0.2,0.5-0.3,0.9-0.4c0.3-0.1,0.7-0.1,1.1-0.1c0.5,0,0.9,0,1.2,0.1c0.3,0.1,0.6,0.2,0.8,0.4s0.4,0.4,0.5,0.6
		c0.1,0.2,0.2,0.5,0.3,0.7l-0.7,0.2c-0.1-0.2-0.2-0.4-0.3-0.6c-0.1-0.2-0.2-0.3-0.4-0.4s-0.3-0.2-0.6-0.2c-0.2-0.1-0.5-0.1-0.8-0.1
		c-0.4,0-0.7,0-0.9,0.1s-0.5,0.2-0.6,0.3c-0.2,0.1-0.3,0.3-0.3,0.4c-0.1,0.2-0.1,0.3-0.1,0.5s0,0.3,0.1,0.5c0,0.1,0.1,0.3,0.2,0.4
		c0.1,0.1,0.3,0.2,0.5,0.3c0.2,0.1,0.5,0.1,0.8,0.2l1.1,0.2c0.8,0.1,1.3,0.4,1.7,0.7s0.6,0.8,0.6,1.5c0,0.3-0.1,0.5-0.2,0.8
		c-0.1,0.3-0.3,0.5-0.5,0.7c-0.2,0.2-0.5,0.3-0.9,0.4c-0.3,0.1-0.7,0.2-1.2,0.2c-0.4,0-0.8,0-1.2-0.1c-0.4-0.1-0.7-0.2-1-0.4
		c-0.3-0.2-0.5-0.4-0.7-0.7c-0.2-0.3-0.3-0.6-0.3-1H491.9z"/>
	<path class="st6" d="M499.1,110.8H498v-0.7h1.1v-2h0.8v2h2v0.7h-2v4.7c0,0.4,0.1,0.7,0.2,0.9c0.1,0.2,0.4,0.4,0.8,0.4
		c0.2,0,0.4,0,0.6-0.1s0.3-0.1,0.4-0.1l0.2,0.7c-0.1,0.1-0.3,0.1-0.5,0.2c-0.2,0-0.5,0.1-0.8,0.1c-0.4,0-0.7-0.1-1-0.2
		s-0.4-0.3-0.5-0.6c-0.1-0.2-0.2-0.5-0.2-0.8c0-0.3,0-0.6,0-0.9V110.8z"/>
	<path class="st6" d="M503.3,107.4h0.9v1.2h-0.9V107.4z M503.4,110.2h0.8v7.2h-0.8V110.2z"/>
	<path class="st6" d="M506.2,110.2h0.8v1.2c0.4-0.5,0.8-0.9,1.3-1.1c0.4-0.2,0.9-0.3,1.4-0.3c0.8,0,1.4,0.2,1.8,0.7
		c0.4,0.5,0.6,1.1,0.6,1.9v4.8h-0.8v-4.6c0-0.8-0.1-1.3-0.4-1.6c-0.3-0.3-0.7-0.5-1.3-0.5c-0.3,0-0.6,0.1-0.9,0.2
		c-0.3,0.1-0.6,0.3-0.8,0.5c-0.3,0.2-0.5,0.5-0.6,0.7c-0.1,0.3-0.2,0.6-0.2,1.1v4.2h-0.8V110.2z"/>
	<path class="st6" d="M518.6,116.3c-0.1,0.1-0.3,0.3-0.4,0.4c-0.2,0.1-0.4,0.3-0.6,0.4c-0.2,0.1-0.5,0.2-0.7,0.3s-0.5,0.1-0.8,0.1
		c-0.8,0-1.4-0.2-1.8-0.5s-0.7-0.9-0.7-1.6c0-0.5,0.1-0.9,0.3-1.2c0.2-0.3,0.5-0.6,0.8-0.7c0.3-0.2,0.7-0.3,1.2-0.4
		c0.4-0.1,0.9-0.1,1.4-0.1l1.4-0.1v-0.2c0-0.7-0.1-1.2-0.4-1.6c-0.3-0.3-0.8-0.5-1.5-0.5c-0.3,0-0.6,0-0.9,0.1
		c-0.2,0.1-0.4,0.1-0.6,0.2c-0.2,0.1-0.3,0.2-0.4,0.4c-0.1,0.1-0.2,0.3-0.2,0.5l-0.7-0.1c0.3-1.2,1.2-1.8,2.8-1.8
		c0.5,0,0.9,0.1,1.3,0.2c0.3,0.1,0.6,0.3,0.8,0.5s0.4,0.5,0.5,0.8c0.1,0.3,0.1,0.7,0.1,1.1v4.7h-0.8V116.3z M518.6,113.5l-1.3,0.1
		c-0.5,0-1,0.1-1.4,0.1c-0.4,0.1-0.7,0.2-0.9,0.3c-0.2,0.1-0.4,0.3-0.5,0.5s-0.1,0.5-0.1,0.7c0,0.4,0.1,0.8,0.4,1.1
		c0.2,0.3,0.7,0.4,1.3,0.4c0.3,0,0.6,0,0.9-0.1c0.3-0.1,0.6-0.2,0.7-0.3c0.2-0.1,0.3-0.2,0.4-0.3c0.1-0.1,0.2-0.2,0.3-0.4
		c0.1-0.1,0.1-0.3,0.1-0.5s0-0.4,0-0.6V113.5z"/>
	<path class="st6" d="M521.7,110.8h-1.1v-0.7h1.1v-2h0.8v2h2v0.7h-2v4.7c0,0.4,0.1,0.7,0.2,0.9c0.1,0.2,0.4,0.4,0.8,0.4
		c0.2,0,0.4,0,0.6-0.1s0.3-0.1,0.4-0.1l0.2,0.7c-0.1,0.1-0.3,0.1-0.5,0.2c-0.2,0-0.5,0.1-0.8,0.1c-0.4,0-0.7-0.1-1-0.2
		s-0.4-0.3-0.5-0.6c-0.1-0.2-0.2-0.5-0.2-0.8c0-0.3,0-0.6,0-0.9V110.8z"/>
	<path class="st6" d="M525.9,107.4h0.9v1.2h-0.9V107.4z M526,110.2h0.8v7.2H526V110.2z"/>
	<path class="st6" d="M532,117.6c-0.5,0-1-0.1-1.4-0.3c-0.4-0.2-0.8-0.4-1-0.8c-0.3-0.3-0.5-0.7-0.7-1.2s-0.2-1-0.2-1.6
		c0-0.6,0.1-1.1,0.2-1.6c0.2-0.5,0.4-0.9,0.7-1.2s0.7-0.6,1.1-0.8c0.4-0.2,0.9-0.3,1.4-0.3c0.5,0,1,0.1,1.4,0.3
		c0.4,0.2,0.8,0.4,1.1,0.8c0.3,0.3,0.5,0.7,0.7,1.2s0.2,1,0.2,1.6c0,0.6-0.1,1.1-0.2,1.6c-0.2,0.5-0.4,0.9-0.7,1.2s-0.7,0.6-1.1,0.8
		S532.5,117.6,532,117.6z M532,116.9c0.5,0,0.8-0.1,1.2-0.2c0.3-0.2,0.6-0.4,0.8-0.7c0.2-0.3,0.4-0.6,0.4-1c0.1-0.4,0.1-0.8,0.1-1.2
		c0-0.4,0-0.8-0.1-1.2c-0.1-0.4-0.2-0.7-0.4-1c-0.2-0.3-0.5-0.5-0.8-0.7c-0.3-0.2-0.7-0.2-1.2-0.2c-0.4,0-0.8,0.1-1.2,0.2
		c-0.3,0.2-0.6,0.4-0.8,0.7c-0.2,0.3-0.3,0.6-0.4,1c-0.1,0.4-0.1,0.8-0.1,1.2c0,0.4,0,0.8,0.1,1.2c0.1,0.4,0.2,0.7,0.4,1
		c0.2,0.3,0.5,0.5,0.8,0.7S531.5,116.9,532,116.9z"/>
	<path class="st6" d="M537.1,110.2h0.8v1.2c0.4-0.5,0.8-0.9,1.3-1.1c0.4-0.2,0.9-0.3,1.4-0.3c0.8,0,1.4,0.2,1.8,0.7
		c0.4,0.5,0.6,1.1,0.6,1.9v4.8h-0.8v-4.6c0-0.8-0.1-1.3-0.4-1.6c-0.3-0.3-0.7-0.5-1.3-0.5c-0.3,0-0.6,0.1-0.9,0.2
		c-0.3,0.1-0.6,0.3-0.8,0.5c-0.3,0.2-0.5,0.5-0.6,0.7c-0.1,0.3-0.2,0.6-0.2,1.1v4.2h-0.8V110.2z"/>
	<path class="st6" d="M474,124.2h0.9l5.6,8.7v-8.7h0.8v10h-0.9l-5.6-8.7v8.7H474V124.2z"/>
	<path class="st6" d="M486.6,134.4c-0.5,0-1-0.1-1.4-0.3c-0.4-0.2-0.8-0.4-1-0.8c-0.3-0.3-0.5-0.7-0.7-1.2s-0.2-1-0.2-1.6
		c0-0.6,0.1-1.1,0.2-1.6c0.2-0.5,0.4-0.9,0.7-1.2c0.3-0.3,0.7-0.6,1.1-0.8c0.4-0.2,0.9-0.3,1.4-0.3c0.5,0,1,0.1,1.4,0.3
		c0.4,0.2,0.8,0.4,1.1,0.8c0.3,0.3,0.5,0.7,0.7,1.2s0.2,1,0.2,1.6c0,0.6-0.1,1.1-0.2,1.6c-0.2,0.5-0.4,0.9-0.7,1.2s-0.7,0.6-1.1,0.8
		S487.2,134.4,486.6,134.4z M486.7,133.7c0.5,0,0.8-0.1,1.2-0.2c0.3-0.2,0.6-0.4,0.8-0.7c0.2-0.3,0.4-0.6,0.4-1
		c0.1-0.4,0.1-0.8,0.1-1.2c0-0.4,0-0.8-0.1-1.2c-0.1-0.4-0.2-0.7-0.4-1c-0.2-0.3-0.5-0.5-0.8-0.7c-0.3-0.2-0.7-0.2-1.2-0.2
		c-0.4,0-0.8,0.1-1.2,0.2c-0.3,0.2-0.6,0.4-0.8,0.7c-0.2,0.3-0.3,0.6-0.4,1c-0.1,0.4-0.1,0.8-0.1,1.2c0,0.4,0,0.8,0.1,1.2
		c0.1,0.4,0.2,0.7,0.4,1c0.2,0.3,0.5,0.5,0.8,0.7S486.2,133.7,486.7,133.7z"/>
	<path class="st6" d="M497.2,133.1c-0.3,0.4-0.7,0.7-1.1,1s-0.9,0.4-1.4,0.4c-0.5,0-1-0.1-1.4-0.3c-0.4-0.2-0.7-0.5-1-0.8
		c-0.3-0.3-0.4-0.7-0.6-1.2c-0.1-0.5-0.2-0.9-0.2-1.4c0-1.2,0.3-2.2,0.9-2.9c0.6-0.7,1.4-1,2.4-1c0.4,0,0.8,0.1,1.2,0.3
		c0.4,0.2,0.8,0.5,1.1,1v-3.8h0.8v10h-0.8V133.1z M497.2,130.3c0-0.3,0-0.6-0.1-0.8c0-0.2-0.1-0.4-0.2-0.6c-0.1-0.2-0.2-0.3-0.3-0.5
		c-0.1-0.1-0.3-0.3-0.4-0.4c-0.2-0.2-0.4-0.3-0.7-0.4c-0.2-0.1-0.5-0.1-0.7-0.1c-0.3,0-0.7,0.1-1,0.2c-0.3,0.1-0.5,0.3-0.7,0.6
		c-0.2,0.3-0.4,0.6-0.5,1c-0.1,0.4-0.2,0.9-0.2,1.5c0,0.6,0.1,1.1,0.2,1.5c0.1,0.4,0.3,0.7,0.5,1c0.2,0.2,0.5,0.4,0.7,0.5
		c0.3,0.1,0.5,0.1,0.8,0.1c0.3,0,0.5,0,0.8-0.1c0.2-0.1,0.5-0.2,0.7-0.4c0.3-0.2,0.6-0.6,0.8-0.9c0.2-0.4,0.3-0.8,0.3-1.4V130.3z"/>
	<path class="st6" d="M506,132.3c-0.1,0.6-0.4,1.1-0.9,1.5c-0.5,0.4-1.2,0.6-2.1,0.6c-1,0-1.8-0.3-2.4-1c-0.6-0.7-0.9-1.6-0.9-2.8
		c0-0.6,0.1-1.2,0.2-1.7s0.4-0.9,0.7-1.2c0.3-0.3,0.6-0.6,1-0.7c0.4-0.2,0.8-0.3,1.3-0.3c0.6,0,1,0.1,1.4,0.3c0.4,0.2,0.7,0.4,1,0.7
		c0.2,0.3,0.4,0.7,0.5,1.1c0.1,0.4,0.2,0.9,0.2,1.4v0.5h-5.5c0,0.4,0.1,0.8,0.2,1.2c0.1,0.4,0.3,0.7,0.5,0.9
		c0.2,0.3,0.5,0.5,0.8,0.6c0.3,0.2,0.7,0.2,1.1,0.2c0.4,0,0.7,0,0.9-0.1s0.5-0.2,0.6-0.3s0.3-0.3,0.4-0.5s0.2-0.4,0.2-0.6H506z
		 M505.2,130.1c0-0.4,0-0.8-0.1-1.1s-0.2-0.6-0.4-0.8c-0.2-0.2-0.4-0.4-0.7-0.6c-0.3-0.1-0.6-0.2-1-0.2c-0.7,0-1.3,0.2-1.7,0.7
		c-0.4,0.4-0.7,1.1-0.8,2H505.2z"/>
</g>
<g>
	<path class="st5" d="M232.4,11.7h3.7v3.9c-0.2,0.2-0.5,0.4-0.8,0.6c-0.3,0.2-0.6,0.3-0.9,0.4c-0.3,0.1-0.7,0.2-1,0.2
		c-0.3,0.1-0.7,0.1-1,0.1c-0.7,0-1.3-0.1-1.9-0.3c-0.6-0.2-1-0.6-1.4-1c-0.4-0.4-0.7-1-0.9-1.6c-0.2-0.6-0.3-1.4-0.3-2.2
		c0-0.9,0.1-1.6,0.3-2.3c0.2-0.7,0.5-1.2,0.9-1.7c0.4-0.4,0.9-0.8,1.4-1c0.5-0.2,1.1-0.3,1.8-0.3c1,0,1.9,0.2,2.4,0.7
		c0.6,0.5,1,1.2,1.2,2L235,9.3c-0.1-0.3-0.2-0.6-0.4-0.9c-0.1-0.3-0.3-0.5-0.6-0.7s-0.5-0.3-0.8-0.4c-0.3-0.1-0.7-0.2-1.1-0.2
		c-0.6,0-1.1,0.1-1.5,0.3s-0.8,0.5-1.1,0.9c-0.3,0.4-0.5,0.9-0.7,1.4c-0.2,0.6-0.2,1.2-0.2,1.8c0,0.7,0.1,1.3,0.2,1.8
		c0.1,0.5,0.4,1,0.7,1.4c0.3,0.4,0.7,0.7,1.2,0.9s1,0.3,1.6,0.3c0.5,0,1.1-0.1,1.6-0.2c0.5-0.1,1-0.4,1.4-0.7v-2.8h-2.9V11.7z"/>
	<path class="st5" d="M242.5,15.6c-0.1,0.1-0.3,0.3-0.4,0.4c-0.2,0.1-0.4,0.3-0.6,0.4c-0.2,0.1-0.5,0.2-0.7,0.3s-0.5,0.1-0.8,0.1
		c-0.8,0-1.4-0.2-1.8-0.5c-0.5-0.4-0.7-0.9-0.7-1.6c0-0.5,0.1-0.9,0.3-1.2c0.2-0.3,0.5-0.6,0.8-0.7s0.7-0.3,1.2-0.4
		c0.4-0.1,0.9-0.1,1.4-0.1l1.4-0.1v-0.2c0-0.7-0.1-1.2-0.4-1.6s-0.8-0.5-1.5-0.5c-0.3,0-0.6,0-0.9,0.1s-0.4,0.1-0.6,0.2
		c-0.2,0.1-0.3,0.2-0.4,0.4c-0.1,0.1-0.2,0.3-0.2,0.5l-0.7-0.1c0.3-1.2,1.2-1.8,2.8-1.8c0.5,0,0.9,0.1,1.3,0.2
		c0.3,0.1,0.6,0.3,0.8,0.5c0.2,0.2,0.4,0.5,0.5,0.8c0.1,0.3,0.1,0.7,0.1,1.1v4.7h-0.8V15.6z M242.5,12.8l-1.3,0.1
		c-0.5,0-1,0.1-1.4,0.1c-0.4,0.1-0.7,0.2-0.9,0.3s-0.4,0.3-0.5,0.5c-0.1,0.2-0.1,0.5-0.1,0.7c0,0.4,0.1,0.8,0.4,1.1
		c0.2,0.3,0.7,0.4,1.3,0.4c0.3,0,0.6,0,0.9-0.1c0.3-0.1,0.6-0.2,0.7-0.3c0.2-0.1,0.3-0.2,0.4-0.4c0.1-0.1,0.2-0.2,0.3-0.4
		s0.1-0.3,0.1-0.5c0-0.2,0-0.4,0-0.6V12.8z"/>
	<path class="st5" d="M245.6,10.1h-1.1V9.4h1.1v-2h0.8v2h2v0.7h-2v4.7c0,0.4,0.1,0.7,0.2,0.9c0.1,0.2,0.4,0.4,0.8,0.4
		c0.2,0,0.4,0,0.6-0.1c0.2,0,0.3-0.1,0.4-0.1l0.2,0.7c-0.1,0.1-0.3,0.1-0.5,0.2c-0.2,0-0.5,0.1-0.8,0.1c-0.4,0-0.7-0.1-1-0.2
		c-0.2-0.1-0.4-0.3-0.5-0.6c-0.1-0.2-0.2-0.5-0.2-0.8s0-0.6,0-0.9V10.1z"/>
	<path class="st5" d="M255.6,14.7c-0.1,0.6-0.4,1.1-0.9,1.5c-0.5,0.4-1.2,0.6-2.1,0.6c-1,0-1.8-0.3-2.4-1c-0.6-0.7-0.9-1.6-0.9-2.8
		c0-0.6,0.1-1.2,0.2-1.7c0.2-0.5,0.4-0.9,0.7-1.2c0.3-0.3,0.6-0.6,1-0.7s0.8-0.3,1.3-0.3c0.6,0,1,0.1,1.4,0.3c0.4,0.2,0.7,0.4,1,0.7
		c0.2,0.3,0.4,0.7,0.5,1.1c0.1,0.4,0.2,0.9,0.2,1.4v0.5h-5.5c0,0.4,0.1,0.8,0.2,1.2c0.1,0.4,0.3,0.7,0.5,0.9
		c0.2,0.3,0.5,0.5,0.8,0.6c0.3,0.2,0.7,0.2,1.1,0.2c0.4,0,0.7,0,0.9-0.1c0.3-0.1,0.5-0.2,0.6-0.3c0.2-0.1,0.3-0.3,0.4-0.5
		c0.1-0.2,0.2-0.4,0.2-0.6H255.6z M254.9,12.5c0-0.4,0-0.8-0.1-1.1c-0.1-0.3-0.2-0.6-0.4-0.8c-0.2-0.2-0.4-0.4-0.7-0.6
		c-0.3-0.1-0.6-0.2-1-0.2c-0.7,0-1.3,0.2-1.7,0.7c-0.4,0.4-0.7,1.1-0.8,2H254.9z"/>
	<path class="st5" d="M256.4,9.4h0.9l1.7,6.3l1.8-6.3h1l1.8,6.3l1.7-6.3h0.9l-2.1,7.2h-0.9l-1.8-6.3l-1.8,6.3h-0.9L256.4,9.4z"/>
	<path class="st5" d="M271.8,15.6c-0.1,0.1-0.3,0.3-0.4,0.4c-0.2,0.1-0.4,0.3-0.6,0.4c-0.2,0.1-0.5,0.2-0.7,0.3s-0.5,0.1-0.8,0.1
		c-0.8,0-1.4-0.2-1.8-0.5c-0.5-0.4-0.7-0.9-0.7-1.6c0-0.5,0.1-0.9,0.3-1.2c0.2-0.3,0.5-0.6,0.8-0.7s0.7-0.3,1.2-0.4
		c0.4-0.1,0.9-0.1,1.4-0.1l1.4-0.1v-0.2c0-0.7-0.1-1.2-0.4-1.6s-0.8-0.5-1.5-0.5c-0.3,0-0.6,0-0.9,0.1s-0.4,0.1-0.6,0.2
		c-0.2,0.1-0.3,0.2-0.4,0.4c-0.1,0.1-0.2,0.3-0.2,0.5l-0.7-0.1c0.3-1.2,1.2-1.8,2.8-1.8c0.5,0,0.9,0.1,1.3,0.2
		c0.3,0.1,0.6,0.3,0.8,0.5c0.2,0.2,0.4,0.5,0.5,0.8c0.1,0.3,0.1,0.7,0.1,1.1v4.7h-0.8V15.6z M271.8,12.8l-1.3,0.1
		c-0.5,0-1,0.1-1.4,0.1c-0.4,0.1-0.7,0.2-0.9,0.3s-0.4,0.3-0.5,0.5c-0.1,0.2-0.1,0.5-0.1,0.7c0,0.4,0.1,0.8,0.4,1.1
		c0.2,0.3,0.7,0.4,1.3,0.4c0.3,0,0.6,0,0.9-0.1c0.3-0.1,0.6-0.2,0.7-0.3c0.2-0.1,0.3-0.2,0.4-0.4c0.1-0.1,0.2-0.2,0.3-0.4
		s0.1-0.3,0.1-0.5c0-0.2,0-0.4,0-0.6V12.8z"/>
	<path class="st5" d="M274.3,18.5c0.1,0,0.2,0.1,0.4,0.1c0.1,0,0.3,0,0.4,0c0.2,0,0.3,0,0.4-0.1c0.1,0,0.2-0.1,0.3-0.2
		c0.1-0.1,0.2-0.2,0.3-0.4c0.1-0.2,0.2-0.4,0.3-0.6l0.3-0.9l-3.1-7.1h0.9l2.6,6.2l2.3-6.2h0.9l-3.3,8.2c-0.1,0.3-0.2,0.5-0.3,0.7
		c-0.1,0.2-0.2,0.4-0.4,0.6c-0.1,0.2-0.3,0.3-0.5,0.4c-0.2,0.1-0.4,0.1-0.7,0.1c-0.2,0-0.4,0-0.5,0c-0.1,0-0.3-0.1-0.5-0.1
		L274.3,18.5z"/>
</g>
<g>
	<path class="st5" d="M292.8,109.1h3.1c0.7,0,1.3,0.1,1.8,0.2c0.5,0.2,0.8,0.4,1.1,0.6c0.3,0.3,0.4,0.5,0.5,0.9s0.1,0.7,0.1,1
		c0,0.6-0.1,1.2-0.4,1.6c-0.3,0.4-0.7,0.8-1.4,1l2.2,4.6h-1l-2-4.4c-0.2,0-0.3,0-0.5,0c-0.2,0-0.3,0-0.5,0h-2.2v4.4h-0.8V109.1z
		 M296.1,114c0.5,0,0.9,0,1.3-0.1c0.3-0.1,0.6-0.2,0.8-0.4c0.2-0.2,0.3-0.4,0.4-0.7c0.1-0.3,0.1-0.6,0.1-0.9c0-0.3,0-0.6-0.1-0.9
		c-0.1-0.2-0.2-0.5-0.4-0.6s-0.5-0.3-0.8-0.4c-0.4-0.1-0.8-0.1-1.3-0.1h-2.3v4.1H296.1z"/>
	<path class="st5" d="M306.9,117.2c-0.1,0.6-0.4,1.1-0.9,1.5c-0.5,0.4-1.2,0.6-2.1,0.6c-1,0-1.8-0.3-2.4-1c-0.6-0.7-0.9-1.6-0.9-2.8
		c0-0.6,0.1-1.2,0.2-1.7c0.2-0.5,0.4-0.9,0.7-1.2c0.3-0.3,0.6-0.6,1-0.7s0.8-0.3,1.3-0.3c0.6,0,1,0.1,1.4,0.3c0.4,0.2,0.7,0.4,1,0.7
		c0.2,0.3,0.4,0.7,0.5,1.1c0.1,0.4,0.2,0.9,0.2,1.4v0.5h-5.5c0,0.4,0.1,0.8,0.2,1.2c0.1,0.4,0.3,0.7,0.5,0.9
		c0.2,0.3,0.5,0.5,0.8,0.6c0.3,0.2,0.7,0.2,1.1,0.2c0.4,0,0.7,0,0.9-0.1c0.3-0.1,0.5-0.2,0.6-0.3c0.2-0.1,0.3-0.3,0.4-0.5
		c0.1-0.2,0.2-0.4,0.2-0.6H306.9z M306.2,115c0-0.4,0-0.8-0.1-1.1c-0.1-0.3-0.2-0.6-0.4-0.8c-0.2-0.2-0.4-0.4-0.7-0.6
		c-0.3-0.1-0.6-0.2-1-0.2c-0.7,0-1.3,0.2-1.7,0.7c-0.4,0.4-0.7,1.1-0.8,2H306.2z"/>
	<path class="st5" d="M308.8,109.1h0.8v10h-0.8V109.1z"/>
	<path class="st5" d="M316.2,118.1c-0.1,0.1-0.3,0.3-0.4,0.4c-0.2,0.1-0.4,0.3-0.6,0.4c-0.2,0.1-0.5,0.2-0.7,0.3s-0.5,0.1-0.8,0.1
		c-0.8,0-1.4-0.2-1.8-0.5c-0.5-0.4-0.7-0.9-0.7-1.6c0-0.5,0.1-0.9,0.3-1.2c0.2-0.3,0.5-0.6,0.8-0.7s0.7-0.3,1.2-0.4
		c0.4-0.1,0.9-0.1,1.4-0.1l1.4-0.1v-0.2c0-0.7-0.1-1.2-0.4-1.6s-0.8-0.5-1.5-0.5c-0.3,0-0.6,0-0.9,0.1s-0.4,0.1-0.6,0.2
		c-0.2,0.1-0.3,0.2-0.4,0.4c-0.1,0.1-0.2,0.3-0.2,0.5l-0.7-0.1c0.3-1.2,1.2-1.8,2.8-1.8c0.5,0,0.9,0.1,1.3,0.2
		c0.3,0.1,0.6,0.3,0.8,0.5c0.2,0.2,0.4,0.5,0.5,0.8c0.1,0.3,0.1,0.7,0.1,1.1v4.7h-0.8V118.1z M316.2,115.3l-1.3,0.1
		c-0.5,0-1,0.1-1.4,0.1c-0.4,0.1-0.7,0.2-0.9,0.3s-0.4,0.3-0.5,0.5c-0.1,0.2-0.1,0.5-0.1,0.7c0,0.4,0.1,0.8,0.4,1.1
		c0.2,0.3,0.7,0.4,1.3,0.4c0.3,0,0.6,0,0.9-0.1c0.3-0.1,0.6-0.2,0.7-0.3c0.2-0.1,0.3-0.2,0.4-0.4c0.1-0.1,0.2-0.2,0.3-0.4
		s0.1-0.3,0.1-0.5c0-0.2,0-0.4,0-0.6V115.3z"/>
	<path class="st5" d="M318.7,121c0.1,0,0.2,0.1,0.4,0.1c0.1,0,0.3,0,0.4,0c0.2,0,0.3,0,0.4-0.1c0.1,0,0.2-0.1,0.3-0.2
		c0.1-0.1,0.2-0.2,0.3-0.4s0.2-0.4,0.3-0.6l0.3-0.9l-3.1-7.1h0.9l2.6,6.2l2.3-6.2h0.9l-3.3,8.2c-0.1,0.3-0.2,0.5-0.3,0.7
		c-0.1,0.2-0.2,0.4-0.4,0.6c-0.1,0.2-0.3,0.3-0.5,0.3s-0.4,0.1-0.7,0.1c-0.2,0-0.4,0-0.5,0s-0.3-0.1-0.5-0.1L318.7,121z"/>
	<path class="st5" d="M288.8,125.9h0.9l5.6,8.7v-8.7h0.8v10h-0.9l-5.6-8.7v8.7h-0.8V125.9z"/>
	<path class="st5" d="M301.5,136.1c-0.5,0-1-0.1-1.4-0.3c-0.4-0.2-0.8-0.4-1-0.8c-0.3-0.3-0.5-0.7-0.7-1.2s-0.2-1-0.2-1.6
		c0-0.6,0.1-1.1,0.2-1.6c0.2-0.5,0.4-0.9,0.7-1.2s0.7-0.6,1.1-0.8c0.4-0.2,0.9-0.3,1.4-0.3c0.5,0,1,0.1,1.4,0.3
		c0.4,0.2,0.8,0.4,1.1,0.8c0.3,0.3,0.5,0.7,0.7,1.2s0.2,1,0.2,1.6c0,0.6-0.1,1.1-0.2,1.6c-0.2,0.5-0.4,0.9-0.7,1.2s-0.7,0.6-1.1,0.8
		S302,136.1,301.5,136.1z M301.5,135.4c0.5,0,0.8-0.1,1.2-0.2c0.3-0.2,0.6-0.4,0.8-0.7c0.2-0.3,0.4-0.6,0.4-1
		c0.1-0.4,0.1-0.8,0.1-1.2c0-0.4,0-0.8-0.1-1.2c-0.1-0.4-0.2-0.7-0.4-1c-0.2-0.3-0.5-0.5-0.8-0.7c-0.3-0.2-0.7-0.2-1.2-0.2
		c-0.4,0-0.8,0.1-1.2,0.2c-0.3,0.2-0.6,0.4-0.8,0.7c-0.2,0.3-0.3,0.6-0.4,1c-0.1,0.4-0.1,0.8-0.1,1.2c0,0.4,0,0.8,0.1,1.2
		c0.1,0.4,0.2,0.7,0.4,1c0.2,0.3,0.5,0.5,0.8,0.7S301,135.4,301.5,135.4z"/>
	<path class="st5" d="M312,134.8c-0.3,0.4-0.7,0.7-1.1,1s-0.9,0.4-1.4,0.4c-0.5,0-1-0.1-1.4-0.3c-0.4-0.2-0.7-0.5-1-0.8
		c-0.3-0.3-0.4-0.7-0.6-1.2c-0.1-0.5-0.2-0.9-0.2-1.4c0-1.2,0.3-2.2,0.9-2.9c0.6-0.7,1.4-1,2.4-1c0.4,0,0.8,0.1,1.2,0.3
		c0.4,0.2,0.8,0.5,1.1,1v-3.8h0.8v10H312V134.8z M312,132c0-0.3,0-0.6-0.1-0.8c0-0.2-0.1-0.4-0.2-0.6c-0.1-0.2-0.2-0.3-0.3-0.5
		c-0.1-0.1-0.3-0.3-0.4-0.4c-0.2-0.2-0.4-0.3-0.7-0.4c-0.2-0.1-0.5-0.1-0.7-0.1c-0.3,0-0.7,0.1-1,0.2c-0.3,0.1-0.5,0.3-0.7,0.6
		c-0.2,0.3-0.4,0.6-0.5,1c-0.1,0.4-0.2,0.9-0.2,1.5c0,0.6,0.1,1.1,0.2,1.5c0.1,0.4,0.3,0.7,0.5,1c0.2,0.2,0.5,0.4,0.7,0.5
		c0.3,0.1,0.5,0.1,0.8,0.1c0.3,0,0.5,0,0.8-0.1c0.2-0.1,0.5-0.2,0.7-0.4c0.3-0.2,0.6-0.6,0.8-0.9c0.2-0.4,0.3-0.8,0.3-1.4V132z"/>
	<path class="st5" d="M320.8,134c-0.1,0.6-0.4,1.1-0.9,1.5c-0.5,0.4-1.2,0.6-2.1,0.6c-1,0-1.8-0.3-2.4-1c-0.6-0.7-0.9-1.6-0.9-2.8
		c0-0.6,0.1-1.2,0.2-1.7s0.4-0.9,0.7-1.2s0.6-0.6,1-0.7c0.4-0.2,0.8-0.3,1.3-0.3c0.6,0,1,0.1,1.4,0.3c0.4,0.2,0.7,0.4,1,0.7
		c0.2,0.3,0.4,0.7,0.5,1.1c0.1,0.4,0.2,0.9,0.2,1.4v0.5h-5.5c0,0.4,0.1,0.8,0.2,1.2c0.1,0.4,0.3,0.7,0.5,0.9
		c0.2,0.3,0.5,0.5,0.8,0.6c0.3,0.2,0.7,0.2,1.1,0.2c0.4,0,0.7,0,0.9-0.1s0.5-0.2,0.6-0.3s0.3-0.3,0.4-0.5s0.2-0.4,0.2-0.6H320.8z
		 M320.1,131.8c0-0.4,0-0.8-0.1-1.1s-0.2-0.6-0.4-0.8c-0.2-0.2-0.4-0.4-0.7-0.6c-0.3-0.1-0.6-0.2-1-0.2c-0.7,0-1.3,0.2-1.7,0.7
		c-0.4,0.4-0.7,1.1-0.8,2H320.1z"/>
	<path class="st5" d="M323,133.9c0.1,0.6,0.3,1,0.7,1.2s0.9,0.3,1.6,0.3c0.7,0,1.2-0.1,1.5-0.4c0.3-0.3,0.4-0.6,0.4-1
		c0-0.2,0-0.3-0.1-0.5s-0.1-0.3-0.2-0.4c-0.1-0.1-0.3-0.2-0.5-0.3c-0.2-0.1-0.5-0.2-0.8-0.2l-0.9-0.1c-0.4-0.1-0.7-0.1-1-0.2
		c-0.3-0.1-0.6-0.2-0.8-0.4s-0.4-0.3-0.5-0.6c-0.1-0.2-0.2-0.5-0.2-0.8c0-0.3,0.1-0.6,0.2-0.9c0.1-0.3,0.3-0.5,0.6-0.6
		c0.2-0.2,0.5-0.3,0.9-0.4c0.3-0.1,0.7-0.1,1.1-0.1c0.5,0,0.9,0,1.2,0.1c0.3,0.1,0.6,0.2,0.8,0.4s0.4,0.4,0.5,0.6
		c0.1,0.2,0.2,0.5,0.3,0.7l-0.7,0.2c-0.1-0.2-0.2-0.4-0.3-0.6c-0.1-0.2-0.2-0.3-0.4-0.4c-0.1-0.1-0.3-0.2-0.6-0.2
		c-0.2-0.1-0.5-0.1-0.8-0.1c-0.4,0-0.7,0-0.9,0.1s-0.5,0.2-0.6,0.3c-0.2,0.1-0.3,0.3-0.3,0.4c-0.1,0.2-0.1,0.3-0.1,0.5
		s0,0.3,0.1,0.5c0,0.1,0.1,0.3,0.2,0.4c0.1,0.1,0.3,0.2,0.5,0.3c0.2,0.1,0.5,0.1,0.8,0.2l1.1,0.2c0.8,0.1,1.3,0.4,1.7,0.7
		c0.4,0.3,0.6,0.8,0.6,1.5c0,0.3-0.1,0.5-0.2,0.8c-0.1,0.3-0.3,0.5-0.5,0.7c-0.2,0.2-0.5,0.3-0.9,0.4c-0.3,0.1-0.7,0.2-1.2,0.2
		c-0.4,0-0.8,0-1.2-0.1c-0.4-0.1-0.7-0.2-1-0.4c-0.3-0.2-0.5-0.4-0.7-0.7c-0.2-0.3-0.3-0.6-0.3-1H323z"/>
</g>
<g>
	<polygon class="st0" points="205.5,198.2 172,198.2 172,159.3 173,159.3 173,197.2 205.5,197.2 	"/>
	<g>
		<polygon class="st0" points="168.4,162.7 169.1,163.3 172.5,159.7 175.8,163.3 176.5,162.7 172.5,158.3 		"/>
	</g>
	<g>
		<polygon class="st0" points="202.2,201.8 201.5,201 205.1,197.7 201.5,194.3 202.2,193.6 206.6,197.7 		"/>
	</g>
</g>
<g>
	<polygon class="st0" points="432.6,198.2 408.1,198.2 408.1,197.2 431.6,197.2 431.6,159.3 432.6,159.3 	"/>
	<g>
		<polygon class="st0" points="428,162.7 428.8,163.3 432.1,159.7 435.5,163.3 436.2,162.7 432.1,158.3 		"/>
	</g>
	<g>
		<polygon class="st0" points="411.4,193.6 412.1,194.3 408.5,197.7 412.1,201 411.4,201.8 407,197.7 		"/>
	</g>
</g>
<g>
	<polygon class="st0" points="432.6,81.6 431.6,81.6 431.6,59.8 408.1,59.8 408.1,58.8 432.6,58.8 	"/>
	<g>
		<polygon class="st0" points="436.2,78.3 435.5,77.6 432.1,81.2 428.8,77.6 428,78.3 432.1,82.7 		"/>
	</g>
	<g>
		<polygon class="st0" points="411.4,55.2 412.1,55.9 408.5,59.3 412.1,62.6 411.4,63.3 407,59.3 		"/>
	</g>
</g>
<g>
	<rect x="284.3" y="61" class="st0" width="46.5" height="1"/>
	<g>
		<polygon class="st0" points="287.6,65.6 288.3,64.9 284.7,61.5 288.3,58.1 287.6,57.4 283.2,61.5 		"/>
	</g>
	<g>
		<polygon class="st0" points="327.5,65.6 326.8,64.9 330.4,61.5 326.8,58.1 327.5,57.4 331.9,61.5 		"/>
	</g>
</g>
<rect x="272.1" y="86.4" transform="matrix(0.7071 -0.7071 0.7071 0.7071 12.1643 220.7753)" class="st5" width="1" height="18.7"/>
<rect x="333.2" y="95.2" transform="matrix(0.7071 -0.7071 0.7071 0.7071 32.6622 270.2631)" class="st5" width="18.7" height="1"/>
<rect x="263.2" y="149.2" transform="matrix(0.7071 -0.7071 0.7071 0.7071 -26.0241 236.5819)" class="st5" width="18.7" height="1"/>
<rect x="342.1" y="140.4" transform="matrix(0.7071 -0.7071 0.7071 0.7071 -5.5215 286.0793)" class="st5" width="1" height="18.7"/>
<g>
	<rect x="284.3" y="199" class="st0" width="46.5" height="1"/>
	<g>
		<polygon class="st0" points="287.6,203.6 288.3,202.9 284.7,199.5 288.3,196.1 287.6,195.4 283.2,199.5 		"/>
	</g>
	<g>
		<polygon class="st0" points="327.5,203.6 326.8,202.9 330.4,199.5 326.8,196.1 327.5,195.4 331.9,199.5 		"/>
	</g>
</g>
</svg>
