<?xml version="1.0" encoding="utf-8"?>
<!-- Generator: Adobe Illustrator 23.0.4, SVG Export Plug-In . SVG Version: 6.00 Build 0)  -->
<svg version="1.1" id="Layer_1" xmlns="http://www.w3.org/2000/svg" xmlns:xlink="http://www.w3.org/1999/xlink" x="0px" y="0px"
	 viewBox="0 0 512.4 306.7" style="enable-background:new 0 0 512.4 306.7;" xml:space="preserve">
<style type="text/css">
	.st0{fill:none;stroke:#FFFFFF;stroke-width:2;stroke-linecap:round;stroke-linejoin:round;stroke-miterlimit:10;}
	.st1{enable-background:new    ;}
	.st2{fill:#FFFFFF;}
	.st3{clip-path:url(#SVGID_2_);}
	.st4{clip-path:url(#SVGID_4_);fill:#FFFFFF;}
	.st5{clip-path:url(#SVGID_6_);}
	.st6{clip-path:url(#SVGID_8_);fill:#FFFFFF;}
	.st7{clip-path:url(#SVGID_10_);}
	.st8{clip-path:url(#SVGID_12_);fill:#FFFFFF;}
	.st9{clip-path:url(#SVGID_14_);}
	.st10{clip-path:url(#SVGID_16_);fill:#FFFFFF;}
	.st11{clip-path:url(#SVGID_18_);}
	.st12{clip-path:url(#SVGID_20_);fill:#FFFFFF;}
	.st13{fill:#AC519F;}
	.st14{fill:#F0E914;}
	.st15{fill-rule:evenodd;clip-rule:evenodd;fill:#F26522;}
	.st16{fill:#02BBB9;}
</style>
<g>
	<path class="st0" d="M199.2,95.5c0.8-0.3,1.8-0.5,2.6-0.5c4.5,0,8.7,3.7,8.7,8.4c0,1.3-0.3,2.6-0.8,3.6h-12.2"/>
	<path class="st0" d="M183.5,84.1c0.6-0.2,1.2-0.2,1.9-0.2c7,0,12.3,4.8,13.7,11.6"/>
	<path class="st0" d="M143.5,84.9c2-9.1,10.5-16,20.6-16c9.9,0,17.2,6,19.4,15"/>
	<path class="st0" d="M120.5,95.9c0.8-7.8,7.1-13.3,14.9-13.3c2.9,0,5.8,0.8,8,2.3"/>
	<path class="st0" d="M124.5,106.9h-13.4c-0.4-1-0.6-2.1-0.6-3.2c0-4.9,2.6-8.4,6.9-8.4c1,0,2.1,0.2,2.9,0.6"/>
	<line class="st0" x1="188.5" y1="106.9" x2="209.5" y2="106.9"/>
	<line class="st0" x1="132.5" y1="106.9" x2="141.5" y2="106.9"/>
	<line class="st0" x1="151.5" y1="106.9" x2="173.5" y2="106.9"/>
</g>
<g>
	<g>
		<g>
			<g class="st1">
				<path class="st2" d="M50.2,95.1h5.5v6c-0.7,0.7-1.6,1.2-2.6,1.6s-2.1,0.6-3.1,0.6c-1.1,0-2.1-0.2-3-0.5
					c-0.8-0.4-1.5-0.9-2.1-1.5s-1-1.4-1.3-2.4c-0.3-0.9-0.4-1.9-0.4-3.1c0-1.2,0.2-2.2,0.5-3.1s0.7-1.7,1.3-2.4
					c0.6-0.7,1.3-1.2,2.1-1.5s1.7-0.5,2.7-0.5c0.9,0,1.7,0.1,2.4,0.3c0.7,0.2,1.2,0.5,1.7,0.9c0.5,0.4,0.8,0.9,1.1,1.4
					c0.3,0.5,0.5,1.1,0.6,1.7l-3,0.4c-0.1-0.4-0.2-0.7-0.3-0.9s-0.3-0.5-0.5-0.7c-0.2-0.2-0.5-0.3-0.8-0.4c-0.3-0.1-0.7-0.1-1.2-0.1
					c-1.2,0-2,0.4-2.6,1.3c-0.6,0.9-0.9,2.1-0.9,3.7c0,1.6,0.3,2.8,0.9,3.7c0.6,0.9,1.5,1.3,2.8,1.3c0.6,0,1.2-0.1,1.6-0.2
					c0.5-0.1,0.9-0.3,1.3-0.6v-2.4h-2.7V95.1z"/>
			</g>
		</g>
	</g>
</g>
<g>
	<g>
		<g>
			<g class="st1">
				<path class="st2" d="M254.1,88.7h9.4v2.6h-6.4v3.4h6v2.6h-6v5.8h-3V88.7z"/>
			</g>
		</g>
	</g>
</g>
<g>
	<g>
		<g>
			<g class="st1">
				<path class="st2" d="M377.9,88.7h9.7v2.5h-6.8v3.1h6.4v2.6h-6.4v3.5h7.2l-0.3,2.5h-9.9V88.7z"/>
			</g>
		</g>
	</g>
</g>
<g>
	<g>
		<g>
			<g class="st1">
				<path class="st2" d="M442.6,153.7h5.3c2.2,0,3.9,0.6,5.1,1.8c1.2,1.2,1.8,2.9,1.8,5.3c0,1.2-0.2,2.2-0.5,3.1
					c-0.3,0.9-0.8,1.6-1.5,2.3s-1.4,1.1-2.3,1.4s-2,0.5-3.1,0.5h-4.8V153.7z M447.5,165.4c0.8,0,1.4-0.1,2-0.3s1-0.5,1.3-1
					c0.3-0.4,0.6-0.9,0.8-1.5c0.2-0.6,0.2-1.2,0.2-1.9c0-0.7-0.1-1.3-0.2-1.9c-0.1-0.6-0.4-1-0.7-1.4s-0.7-0.7-1.2-0.9
					c-0.5-0.2-1.1-0.3-1.8-0.3h-2.4v9.2H447.5z"/>
			</g>
		</g>
	</g>
</g>
<g>
	<g>
		<g>
			<g class="st1">
				<path class="st2" d="M191,153.7h2.8l5.4,14.3H196l-1.1-3.3h-5l-1.1,3.3h-3.1L191,153.7z M194.1,162.2l-1.7-5.1l-1.7,5.1H194.1z"
					/>
			</g>
		</g>
	</g>
</g>
<g>
	<g>
		<g>
			<g class="st1">
				<path class="st2" d="M389,236c-0.1,0.8-0.2,1.5-0.5,2.1c-0.3,0.6-0.7,1.2-1.2,1.7c-0.5,0.5-1.1,0.8-1.8,1.1s-1.6,0.4-2.5,0.4
					c-1.1,0-2-0.2-2.9-0.5c-0.8-0.4-1.5-0.9-2.1-1.5c-0.6-0.7-1-1.4-1.2-2.4c-0.3-0.9-0.4-1.9-0.4-3.1c0-1.2,0.2-2.2,0.5-3.1
					s0.7-1.7,1.3-2.4s1.3-1.2,2.1-1.5s1.7-0.5,2.8-0.5c0.9,0,1.7,0.1,2.4,0.3c0.7,0.2,1.2,0.6,1.7,1c0.5,0.4,0.8,0.9,1.1,1.5
					c0.3,0.6,0.5,1.3,0.6,2l-3,0.4c-0.1-0.8-0.4-1.5-0.9-2c-0.4-0.5-1.1-0.7-2-0.7c-1.1,0-2,0.4-2.6,1.3c-0.6,0.9-0.9,2.1-0.9,3.7
					c0,1.6,0.3,2.8,0.9,3.7c0.6,0.9,1.5,1.3,2.6,1.3c0.9,0,1.6-0.2,2-0.7c0.4-0.5,0.7-1.1,0.8-2H389z"/>
			</g>
		</g>
	</g>
</g>
<g>
	<g>
		<g>
			<g class="st1">
				<path class="st2" d="M253.5,226.7h5.1c1.1,0,1.9,0.1,2.6,0.3c0.7,0.2,1.2,0.5,1.6,0.8c0.4,0.3,0.7,0.8,0.8,1.2
					c0.2,0.5,0.2,1,0.2,1.5c0,0.6-0.1,1.1-0.4,1.6s-0.7,0.9-1.4,1.3c0.4,0.2,0.8,0.5,1,0.7c0.3,0.2,0.5,0.5,0.6,0.8s0.3,0.6,0.3,0.9
					c0.1,0.3,0.1,0.6,0.1,0.9c0,0.6-0.1,1.2-0.3,1.7c-0.2,0.5-0.5,1-0.9,1.4s-1,0.7-1.7,0.9c-0.7,0.2-1.5,0.3-2.5,0.3h-5.5V226.7z
					 M258.9,232.3c0.8,0,1.3-0.1,1.6-0.4c0.3-0.3,0.4-0.7,0.4-1.3c0-0.6-0.2-1-0.6-1.2c-0.4-0.2-1-0.4-1.9-0.4h-2.2v3.3H258.9z
					 M258.8,238.6c0.5,0,0.9,0,1.2-0.1c0.3-0.1,0.6-0.2,0.8-0.4c0.2-0.2,0.3-0.4,0.4-0.6c0.1-0.2,0.1-0.5,0.1-0.8
					c0-0.6-0.2-1.1-0.5-1.4c-0.3-0.3-0.9-0.5-1.8-0.5h-2.8v3.9H258.8z"/>
			</g>
		</g>
	</g>
</g>
<g>
	<g>
		<defs>
			<polygon id="SVGID_1_" points="299.4,96.9 305.7,100.5 306.1,100.8 305.7,101.6 305.2,101.4 297.2,96.9 296.4,96.4 297.2,96 
				305.2,91.5 305.7,91.3 306.1,92.1 305.7,92.4 299.4,95.9 305.5,95.9 349.5,95.9 355.6,95.9 349.2,92.4 348.8,92.1 349.3,91.3 
				349.7,91.5 357.7,96 358.5,96.4 357.7,96.9 349.7,101.4 349.3,101.6 348.8,100.8 349.2,100.5 355.6,96.9 349.5,96.9 305.5,96.9 
							"/>
		</defs>
		<clipPath id="SVGID_2_">
			<use xlink:href="#SVGID_1_"  style="overflow:visible;"/>
		</clipPath>
		<g class="st3">
			<g>
				<defs>
					<rect id="SVGID_3_" x="-729" y="-622.1" width="1440" height="1447"/>
				</defs>
				<clipPath id="SVGID_4_">
					<use xlink:href="#SVGID_3_"  style="overflow:visible;"/>
				</clipPath>
				<rect x="291.4" y="86.3" class="st4" width="72" height="20.4"/>
			</g>
		</g>
	</g>
</g>
<g>
	<g>
		<defs>
			<polygon id="SVGID_5_" points="299.4,234.9 305.7,238.5 306.1,238.8 305.7,239.6 305.2,239.4 297.2,234.9 296.4,234.4 297.2,234 
				305.2,229.5 305.7,229.3 306.1,230.1 305.7,230.4 299.4,233.9 305.5,233.9 349.5,233.9 355.6,233.9 349.2,230.4 348.8,230.1 
				349.3,229.3 349.7,229.5 357.7,234 358.5,234.4 357.7,234.9 349.7,239.4 349.3,239.6 348.8,238.8 349.2,238.5 355.6,234.9 
				349.5,234.9 305.5,234.9 			"/>
		</defs>
		<clipPath id="SVGID_6_">
			<use xlink:href="#SVGID_5_"  style="overflow:visible;"/>
		</clipPath>
		<g class="st5">
			<g>
				<defs>
					<rect id="SVGID_7_" x="-729" y="-622.1" width="1440" height="1447"/>
				</defs>
				<clipPath id="SVGID_8_">
					<use xlink:href="#SVGID_7_"  style="overflow:visible;"/>
				</clipPath>
				<rect x="291.4" y="224.3" class="st6" width="72" height="20.4"/>
			</g>
		</g>
	</g>
</g>
<g>
	<g>
		<defs>
			<path id="SVGID_9_" d="M429.4,90.9l6.3,3.6l0.4,0.2l-0.5,0.9l-0.4-0.2l-8-4.5l-0.8-0.4l0.8-0.4l8-4.5l0.4-0.2l0.5,0.9l-0.4,0.2
				l-6.3,3.6h6.1h22h0.5v0.5c0,11.2,0,11.2,0,19v6.1l3.6-6.3l0.2-0.4l0.9,0.5l-0.2,0.4l-4.5,8l-0.4,0.8l-0.4-0.8l-4.5-8l-0.2-0.4
				l0.9-0.5l0.2,0.4l3.6,6.3v-6.1c0-7.7,0-7.8,0-18.5h-21.5h-6.3V90.9z"/>
		</defs>
		<clipPath id="SVGID_10_">
			<use xlink:href="#SVGID_9_"  style="overflow:visible;"/>
		</clipPath>
		<g class="st7">
			<g>
				<defs>
					<rect id="SVGID_11_" x="-729" y="-622.1" width="1440" height="1447"/>
				</defs>
				<clipPath id="SVGID_12_">
					<use xlink:href="#SVGID_11_"  style="overflow:visible;"/>
				</clipPath>
				<rect x="421.4" y="80.3" class="st8" width="46.2" height="43.2"/>
			</g>
		</g>
	</g>
</g>
<g>
	<g>
		<defs>
			<path id="SVGID_13_" d="M225.1,232.1l-6.3-3.6l-0.4-0.2l0.5-0.9l0.4,0.2l8,4.5l0.8,0.4l-0.8,0.4l-8,4.5l-0.4,0.2l-0.5-0.9
				l0.4-0.2l6.3-3.6H219h-22h-0.5v-0.5c0-19.8,0-19.8,0-32v-6.1l-3.6,6.3l-0.2,0.4l-0.9-0.5l0.2-0.4l4.5-8l0.4-0.8l0.4,0.8l4.5,8
				l0.2,0.4l-0.9,0.5l-0.2-0.4l-3.6-6.3v6.1c0,12.1,0,12.2,0,31.5H219h6.1V232.1z"/>
		</defs>
		<clipPath id="SVGID_14_">
			<use xlink:href="#SVGID_13_"  style="overflow:visible;"/>
		</clipPath>
		<g class="st9">
			<g>
				<defs>
					<rect id="SVGID_15_" x="-729" y="-622.1" width="1440" height="1447"/>
				</defs>
				<clipPath id="SVGID_16_">
					<use xlink:href="#SVGID_15_"  style="overflow:visible;"/>
				</clipPath>
				<rect x="186.8" y="186.6" class="st10" width="46.2" height="56.2"/>
			</g>
		</g>
	</g>
</g>
<g>
	<g>
		<defs>
			<path id="SVGID_17_" d="M430.4,232.1l6.3-3.6l0.4-0.2l-0.5-0.9l-0.4,0.2l-8,4.5l-0.8,0.4l0.8,0.4l8,4.5l0.4,0.2l0.5-0.9l-0.4-0.2
				l-6.3-3.6h6.1h22h0.5v-0.5c0-19.8,0-19.8,0-32v-6.1l3.6,6.3l0.2,0.4l0.9-0.5l-0.2-0.4l-4.5-8l-0.4-0.8l-0.4,0.8l-4.5,8l-0.2,0.4
				l0.9,0.5l0.2-0.4l3.6-6.3v6.1c0,12.1,0,12.2,0,31.5h-21.5h-6.3V232.1z"/>
		</defs>
		<clipPath id="SVGID_18_">
			<use xlink:href="#SVGID_17_"  style="overflow:visible;"/>
		</clipPath>
		<g class="st11">
			<g>
				<defs>
					<rect id="SVGID_19_" x="-729" y="-622.1" width="1440" height="1447"/>
				</defs>
				<clipPath id="SVGID_20_">
					<use xlink:href="#SVGID_19_"  style="overflow:visible;"/>
				</clipPath>
				<rect x="422.4" y="186.6" class="st12" width="46.2" height="56.2"/>
			</g>
		</g>
	</g>
</g>
<path class="st13" d="M84.1,62.5L84.1,62.5v-0.2l0,0l0,0c0,0,0,0,0-0.1c0,0,0-0.1-0.1-0.1c0,0,0-0.1-0.1-0.1l0,0c0,0,0,0-0.1-0.1
	c0,0-0.1,0-0.1-0.1h-0.1l0,0l0,0h-0.1h-0.1l0,0H42.1c-0.1,0-0.2,0-0.4,0.1c-0.1,0-0.2,0.1-0.3,0.2l-13,12.7
	c-0.1,0.1-0.1,0.2-0.2,0.3v0.1c0,0.1,0,0.2,0,0.2s0,0,0,0.1v40.3c0,0.1,0,0.2,0.1,0.3c0.1,0.2,0.3,0.4,0.5,0.5
	c0.1,0,0.2,0.1,0.4,0.1h41.1c0.1,0,0.2,0,0.4-0.1c0.1,0,0.2-0.1,0.3-0.2l13.1-12.8c0.1-0.1,0.1-0.2,0.2-0.3c0-0.1,0.1-0.2,0.1-0.3
	L84.1,62.5C84.1,62.6,84.1,62.6,84.1,62.5z M69.1,80v1.8v3.7v1.8V91v1.8v3.7v1.8v16.5H30.6H30v-0.6V76.3h16.8h1.9h3.7h1.9H58h1.9
	h3.7h1.9h3.7V80H69.1z"/>
<path class="st14" d="M227.1,127.9L227.1,127.9v-0.2l0,0l0,0c0,0,0,0,0-0.1c0,0,0-0.1-0.1-0.1c0,0,0-0.1-0.1-0.1l0,0
	c0,0,0,0-0.1-0.1c0,0-0.1,0-0.1-0.1h-0.1l0,0l0,0h-0.1h-0.1l0,0h-41.1c-0.1,0-0.2,0-0.4,0.1c-0.1,0-0.2,0.1-0.3,0.2l-13.1,12.8
	c-0.1,0.1-0.1,0.2-0.2,0.3v0.1c0,0.1,0,0.2,0,0.2s0,0,0,0.1v40.3c0,0.1,0,0.2,0.1,0.3c0.1,0.2,0.3,0.4,0.5,0.5
	c0.1,0,0.2,0.1,0.4,0.1h41.1c0.1,0,0.2,0,0.4-0.1c0.1,0,0.2-0.1,0.3-0.2l13.1-12.8c0.1-0.1,0.1-0.2,0.2-0.3c0-0.1,0.1-0.2,0.1-0.3
	L227.1,127.9L227.1,127.9z M212.2,145.3v1.8v3.7v1.8v3.7v1.8v3.7v1.8v16.5h-38.6H173v-0.6v-37.9h16.8h1.9h3.7h1.9h3.7h1.9h3.7h1.9
	h3.7L212.2,145.3L212.2,145.3z"/>
<path class="st15" d="M482.8,127.9L482.8,127.9v-0.2l0,0l0,0c0,0,0,0,0-0.1c0,0,0-0.1-0.1-0.1c0,0,0-0.1-0.1-0.1l0,0
	c0,0,0,0-0.1-0.1c0,0-0.1,0-0.1-0.1h-0.1l0,0l0,0h-0.1h-0.1l0,0H441c-0.1,0-0.2,0-0.4,0.1c-0.1,0-0.2,0.1-0.3,0.2L427,140.1
	c-0.1,0.1-0.1,0.2-0.2,0.3v0.1c0,0.1,0,0.2,0,0.2s0,0,0,0.1v40.3c0,0.1,0,0.2,0.1,0.3c0.1,0.2,0.3,0.4,0.5,0.5
	c0.1,0,0.2,0.1,0.4,0.1h41.1c0.1,0,0.2,0,0.4-0.1c0.1,0,0.2-0.1,0.3-0.2l13.1-12.8c0.1-0.1,0.1-0.2,0.2-0.3c0-0.1,0.1-0.2,0.1-0.3
	L482.8,127.9L482.8,127.9z M467.8,145.3v1.8v3.7v1.8v3.7v1.8v3.7v1.8v16.5h-38.6h-0.6v-0.6v-37.9h16.8h1.9h3.7h1.9h3.7h1.9h3.7h1.9
	h3.7V145.3z"/>
<path class="st16" d="M293.2,62.9L293.2,62.9v-0.2l0,0l0,0c0,0,0,0,0-0.1c0,0,0-0.1-0.1-0.1c0,0,0-0.1-0.1-0.1l0,0c0,0,0,0-0.1-0.1
	c0,0-0.1,0-0.1-0.1h-0.1l0,0l0,0h-0.1h-0.1l0,0h-41.1c-0.1,0-0.2,0-0.4,0.1c-0.1,0-0.2,0.1-0.3,0.2l-13.1,12.8
	c-0.1,0.1-0.1,0.2-0.2,0.3v0.1c0,0.1,0,0.2,0,0.2s0,0,0,0.1v40.3c0,0.1,0,0.2,0.1,0.3c0.1,0.2,0.3,0.4,0.5,0.5
	c0.1,0,0.2,0.1,0.4,0.1h41.1c0.1,0,0.2,0,0.4-0.1c0.1,0,0.2-0.1,0.3-0.2l13.1-12.8c0.1-0.1,0.1-0.2,0.2-0.3c0-0.1,0.1-0.2,0.1-0.3
	L293.2,62.9L293.2,62.9z M278.3,80.4v1.8v3.7v1.8v3.7v1.8v3.7v1.8v16.5h-38.6H239v-0.6V76.7h16.8h1.9h3.7h1.9h3.7h1.9h3.7h1.9h3.7
	L278.3,80.4L278.3,80.4z"/>
<path class="st16" d="M417.1,62.9L417.1,62.9v-0.2l0,0l0,0c0,0,0,0,0-0.1c0,0,0-0.1-0.1-0.1c0,0,0-0.1-0.1-0.1l0,0c0,0,0,0-0.1-0.1
	c0,0-0.1,0-0.1-0.1h-0.1l0,0l0,0h-0.1h-0.1l0,0h-41.1c-0.1,0-0.2,0-0.4,0.1c-0.1,0-0.2,0.1-0.3,0.2l-13.1,12.8
	c-0.1,0.1-0.1,0.2-0.2,0.3v0.1c0,0.1,0,0.2,0,0.2s0,0,0,0.1v40.3c0,0.1,0,0.2,0.1,0.3c0.1,0.2,0.3,0.4,0.5,0.5
	c0.1,0,0.2,0.1,0.4,0.1h41.1c0.1,0,0.2,0,0.4-0.1c0.1,0,0.2-0.1,0.3-0.2l13.1-12.8c0.1-0.1,0.1-0.2,0.2-0.3c0-0.1,0.1-0.2,0.1-0.3
	L417.1,62.9L417.1,62.9z M402.1,80.4v1.8v3.7v1.8v3.7v1.8v3.7v1.8v16.5h-38.6h-0.6v-0.6V76.7h16.8h1.9h3.7h1.9h3.7h1.9h3.7h1.9h3.7
	V80.4z"/>
<path class="st16" d="M293.2,200.7v-0.1v-0.1l0,0l0,0c0,0,0,0,0-0.1c0,0,0-0.1-0.1-0.1c0,0,0-0.1-0.1-0.1l0,0c0,0,0,0-0.1-0.1
	c0,0-0.1,0-0.1-0.1h-0.1l0,0l0,0h-0.1h-0.1l0,0h-41.1c-0.1,0-0.2,0-0.4,0.1c-0.1,0-0.2,0.1-0.3,0.2l-13.1,12.8
	c-0.1,0.1-0.1,0.2-0.2,0.3v0.1c0,0.1,0,0.2,0,0.2s0,0,0,0.1v40.3c0,0.1,0,0.2,0.1,0.3c0.1,0.2,0.3,0.4,0.5,0.5
	c0.1,0,0.2,0.1,0.4,0.1h41.1c0.1,0,0.2,0,0.4-0.1c0.1,0,0.2-0.1,0.3-0.2l13.1-12.8c0.1-0.1,0.1-0.2,0.2-0.3c0-0.1,0.1-0.2,0.1-0.3
	L293.2,200.7L293.2,200.7z M278.3,218.2v1.8v3.7v1.8v3.7v1.8v3.7v1.8V253h-38.6H239v-0.6v-37.9h16.8h1.9h3.7h1.9h3.7h1.9h3.7h1.9
	h3.7L278.3,218.2L278.3,218.2z"/>
<path class="st16" d="M417.1,200.7v-0.1v-0.1l0,0l0,0c0,0,0,0,0-0.1c0,0,0-0.1-0.1-0.1c0,0,0-0.1-0.1-0.1l0,0c0,0,0,0-0.1-0.1
	c0,0-0.1,0-0.1-0.1h-0.1l0,0l0,0h-0.1h-0.1l0,0h-41.1c-0.1,0-0.2,0-0.4,0.1c-0.1,0-0.2,0.1-0.3,0.2l-13.1,12.8
	c-0.1,0.1-0.1,0.2-0.2,0.3v0.1c0,0.1,0,0.2,0,0.2s0,0,0,0.1v40.3c0,0.1,0,0.2,0.1,0.3c0.1,0.2,0.3,0.4,0.5,0.5
	c0.1,0,0.2,0.1,0.4,0.1h41.1c0.1,0,0.2,0,0.4-0.1c0.1,0,0.2-0.1,0.3-0.2l13.1-12.8c0.1-0.1,0.1-0.2,0.2-0.3c0-0.1,0.1-0.2,0.1-0.3
	L417.1,200.7L417.1,200.7z M402.1,218.2v1.8v3.7v1.8v3.7v1.8v3.7v1.8V253h-38.6h-0.6v-0.6v-37.9h16.8h1.9h3.7h1.9h3.7h1.9h3.7h1.9
	h3.7V218.2z"/>
</svg>
