
<svg width="27px" height="39px" viewBox="0 0 27 39" version="1.1" xmlns="http://www.w3.org/2000/svg" xmlns:xlink="http://www.w3.org/1999/xlink">
    <g id="Page-1" stroke="none" stroke-width="1" fill="none" fill-rule="evenodd">
        <g id="Desktop-About-Copy-2" transform="translate(-90.000000, -1119.000000)" fill="#00BBBA" fill-rule="nonzero">
            <g id="Group-5-Copy" transform="translate(88.000000, 1006.000000)">
                <g id="Group-4" transform="translate(2.000000, 113.000000)">
                    <g id="noun_Location_2555023">
                        <path d="M13.456869,7.00030162 C9.74760383,7.00030162 6.7284345,10.1214552 6.7284345,13.9560153 C6.7284345,17.7905754 9.74760383,20.911729 13.456869,20.911729 C17.1661342,20.911729 20.1853035,17.7905754 20.1853035,13.9560153 C20.1853035,10.1214552 17.1661342,7.00030162 13.456869,7.00030162 Z M13.456869,18.1472787 C11.2140575,18.1472787 9.40255591,16.2745866 9.40255591,13.9560153 C9.40255591,11.6374441 11.2140575,9.76475194 13.456869,9.76475194 C15.6996805,9.76475194 17.5111821,11.6374441 17.5111821,13.9560153 C17.5111821,16.2745866 15.6996805,18.1472787 13.456869,18.1472787 Z M13.456869,0 C5.99520767,0 0,6.24230717 0,13.9114274 C0,21.0900807 11.1277955,36.6958486 12.4217252,38.434777 C12.8530351,39.0590077 13.715655,39.1927715 14.3194888,38.7023045 C14.4057508,38.6131287 14.4920128,38.5239528 14.5782748,38.434777 C15.8290735,36.6958486 27,21.0900807 27,13.9114274 C26.913738,6.24230717 20.9185304,0 13.456869,0 Z M13.456869,35.2690355 C9.66134185,29.8293107 2.67412141,18.7269215 2.67412141,13.9560153 C2.67412141,7.80288397 7.50479233,2.80903823 13.456869,2.80903823 C19.4089457,2.80903823 24.2396166,7.80288397 24.2396166,13.9560153 C24.2396166,18.7269215 17.2092652,29.8293107 13.456869,35.2690355 Z" id="Shape"></path>
                    </g>
                </g>
            </g>
        </g>
    </g>
</svg>