
<svg width="87px" height="87px" viewBox="0 0 87 87" version="1.1" xmlns="http://www.w3.org/2000/svg" xmlns:xlink="http://www.w3.org/1999/xlink">
    <g id="Page-1" stroke="none" stroke-width="1" fill="none" fill-rule="evenodd">
        <g id="Desktop-HD-Copy-18" transform="translate(-54.000000, -18.000000)" fill-rule="nonzero">
            <g id="gbm_logo_v1-01" transform="translate(45.000000, 9.000000)">
                <ellipse id="Oval" fill="#00BBBA" transform="translate(52.411136, 52.082703) rotate(-13.285796) translate(-52.411136, -52.082703) " cx="52.4111361" cy="52.082703" rx="43.1565931" ry="42.9888714"></ellipse>
                <path d="M84.3494814,65.6046309 C83.7041427,64.4119259 82.6900392,63.5862069 81.3993619,63.2192208 L81.3071706,42.1175153 C81.6759356,42.0257688 81.9525093,41.9340222 82.229083,41.6587826 C83.427569,41.0165568 84.3494814,39.8238517 84.7182463,38.4476535 C85.0870112,37.0714553 84.9026288,35.6035106 84.1650989,34.4108055 C82.6900392,31.9336488 79.463346,31.0161834 76.9741826,32.4841281 C76.6054177,32.6676212 76.4210352,32.8511143 76.0522703,33.0346074 L57.6140235,22.4837546 C57.9827884,21.2910495 57.7062147,19.9148514 57.0608761,18.6303997 C55.5858163,16.153243 52.3591232,15.2357776 49.8699598,16.7037223 C48.6714738,17.3459481 47.7495615,18.5386532 47.3807965,19.9148514 C47.196414,20.8323168 47.196414,21.7497823 47.3807965,22.5755012 L29.1269322,33.2181004 C28.4815935,32.5758746 27.6518724,32.1171419 26.7299601,31.8419023 C25.3470916,31.4749161 23.8720318,31.6584092 22.6735458,32.3923815 C21.4750597,33.0346074 20.5531474,34.2273124 20.1843825,35.6035106 C19.8156175,36.9797088 20,38.4476535 20.7375299,39.6403586 C21.3828685,40.7413172 22.5813546,41.6587826 23.6876494,42.0257688 L23.7798406,63.3109673 C23.4110757,63.4027139 23.134502,63.4944604 22.765737,63.7697 C20.2765737,65.2376448 19.3546614,68.4487738 20.8297211,70.9259306 C21.4750597,72.1186357 22.6735458,73.0361011 24.0564143,73.4030873 C24.5173705,73.4948338 24.9783266,73.5865804 25.4392828,73.5865804 C26.3611951,73.5865804 27.2831075,73.4030873 28.1128286,72.9443546 C28.4815935,72.7608615 28.7581672,72.4856218 29.0347409,72.3021288 L47.4729877,82.8529815 C47.2886053,84.0456866 47.3807965,85.3301382 48.0261352,86.4310967 C49.0402387,88.0825345 50.8840634,89 52.6356969,89 C53.5576092,89 54.4795215,88.8165069 55.3092426,88.3577742 C56.5077287,87.7155484 57.429641,86.5228433 57.798406,85.1466451 C57.9827884,84.3209262 57.9827884,83.4952073 57.798406,82.6694884 L76.0522703,72.1186357 C76.6976089,72.6691149 77.4351388,73.1278477 78.1726687,73.3113407 C78.6336249,73.4030873 79.094581,73.4948338 79.5555372,73.4948338 C80.4774495,73.4948338 81.3993619,73.3113407 82.229083,72.852608 C83.427569,72.2103822 84.3494814,71.0176771 84.7182463,69.6414789 C85.1792025,68.2652808 85.0870112,66.797336 84.3494814,65.6046309 Z M55.3092426,43.9524462 C57.7062147,42.7597412 59.9188043,41.8422757 61.9470115,41.1083033 C66.8331469,39.365119 71.0739437,38.6311466 74.1162544,38.2641604 C74.2084456,38.7228932 74.3928281,39.1816259 74.6694018,39.7321052 C75.4991229,41.1083033 76.6976089,41.8422757 78.0804775,42.2092619 L78.1726687,63.0357277 C77.9882862,63.2192208 77.7117125,63.3109673 77.4351388,63.4027139 C69.9676489,54.2280593 62.2235852,47.9892942 55.3092426,43.9524462 Z M27.2831075,63.4027139 C27.098725,63.4027139 27.0065338,63.3109673 26.8221513,63.3109673 C26.8221513,63.3109673 26.8221513,63.3109673 26.7299601,63.3109673 L26.6377689,42.2092619 C27.098725,42.1175153 27.5596812,41.8422757 28.0206374,41.6587826 C29.2191234,41.0165568 30.1410357,39.8238517 30.5098007,38.4476535 C30.5098007,38.4476535 30.5098007,38.355907 30.5098007,38.355907 C33.5521114,38.7228932 37.7929082,39.4568655 42.7712348,41.2000499 C44.799442,41.9340222 47.0120316,42.8514877 49.4090037,44.0441928 C42.4024699,47.9892942 34.7505974,54.1363128 27.2831075,63.4027139 Z M55.9545813,25.1444045 L74.0240632,35.4200175 C70.79737,35.7870037 66.3721907,36.6127226 61.1172904,38.355907 C58.9047008,39.1816259 56.4155375,40.1908379 53.8341829,41.4752895 L53.7419917,26.4288561 C54.1107566,26.3371095 54.4795215,26.1536165 54.8482865,25.9701234 C55.3092426,25.7866303 55.6780076,25.4196441 55.9545813,25.1444045 Z M48.5792826,25.236151 C49.2246212,25.7866303 49.9621511,26.245363 50.7918722,26.4288561 C50.7918722,26.4288561 50.8840634,26.4288561 50.8840634,26.4288561 L50.9762546,41.5670361 C48.3027089,40.1908379 45.7213543,39.1816259 43.4165734,38.355907 C38.4382468,36.6127226 34.1052588,35.7870037 30.8785656,35.4200175 L48.5792826,25.236151 Z M48.9480475,80.1923316 L30.6941832,69.7332255 C31.0629481,68.3570273 30.8785656,66.8890826 30.1410357,65.6963775 C29.9566533,65.4211379 29.864462,65.2376448 29.6800796,64.9624051 C36.9631871,56.0629902 44.430677,50.0994648 51.1606371,46.2461099 L51.3450196,78.6326404 C50.9762546,78.7243869 50.6074897,78.90788 50.2387248,79.1831197 C49.6855774,79.3666127 49.2246212,79.7335989 48.9480475,80.1923316 Z M74.5772106,69.6414789 L56.5999199,80.1005851 C55.9545813,79.4583593 55.1248602,78.9996266 54.2029478,78.6326404 C54.2029478,78.6326404 54.1107566,78.6326404 54.1107566,78.6326404 L53.8341829,46.429603 C60.4719517,50.3747044 67.9394417,56.3382299 75.2225492,65.2376448 C74.9459755,65.6963775 74.6694018,66.2468568 74.5772106,66.797336 C74.3928281,67.7148015 74.3928281,68.7240135 74.5772106,69.6414789 Z" id="Shape" fill="#FFFFFF"></path>
            </g>
        </g>
    </g>
</svg>