
<svg width="211px" height="87px" viewBox="0 0 211 87" version="1.1" xmlns="http://www.w3.org/2000/svg" xmlns:xlink="http://www.w3.org/1999/xlink">
    <g id="Page-1" stroke="none" stroke-width="1" fill="none" fill-rule="evenodd">
        <g id="Desktop-HD-Copy-18" transform="translate(-54.000000, -18.000000)" fill-rule="nonzero">
            <g id="gbm_logo_v1-01" transform="translate(45.000000, 9.000000)">
                <g id="Group" transform="translate(108.000000, 15.000000)" fill="#FFFFFF">
                    <path d="M18.0495868,8.41428571 L18.0495868,18.0047619 L15.1801653,18.0047619 L14.9024793,15.652381 C13.7917355,17.2809524 11.9404959,18.2761905 9.34876033,18.2761905 C3.88760331,18.2761905 0.462809917,14.5666667 0.462809917,9.22857143 C0.462809917,3.8 4.07272727,0.0904761905 9.62644628,0.0904761905 C14.1619835,0.0904761905 17.3090909,2.44285714 18.0495868,6.42380952 L13.7917355,6.42380952 C13.2363636,4.52380952 11.9404959,3.25714286 9.5338843,3.25714286 C6.38677686,3.25714286 4.53553719,5.88095238 4.53553719,9.22857143 C4.53553719,12.7571429 6.38677686,15.2 9.62644628,15.2 C11.9404959,15.2 13.8842975,13.8428571 14.3471074,11.4 L9.25619835,11.4 L9.25619835,8.5047619 L18.0495868,8.5047619 L18.0495868,8.41428571 Z" id="Path"></path>
                    <polygon id="Path" points="35.0809917 14.747619 35.0809917 18.0047619 22.214876 18.0047619 22.214876 0.361904762 26.2876033 0.361904762 26.2876033 14.747619"></polygon>
                    <path d="M55.3520661,9.22857143 C55.3520661,14.4761905 51.5570248,18.2761905 46.1884298,18.2761905 C40.8198347,18.2761905 37.0247934,14.4761905 37.0247934,9.22857143 C37.0247934,3.98095238 40.8198347,0.0904761905 46.1884298,0.0904761905 C51.5570248,0.0904761905 55.3520661,3.98095238 55.3520661,9.22857143 Z M41.0975207,9.22857143 C41.0975207,12.6666667 43.0413223,15.0190476 46.0958678,15.0190476 C49.1504132,15.0190476 51.0942149,12.6666667 51.0942149,9.22857143 C51.0942149,5.79047619 49.1504132,3.34761905 46.0958678,3.34761905 C43.0413223,3.34761905 41.0975207,5.79047619 41.0975207,9.22857143 Z" id="Shape"></path>
                    <path d="M74.4198347,13.2095238 C74.4198347,16.1047619 72.0132231,17.9142857 68.4033058,17.9142857 L58.9619835,17.9142857 L58.9619835,0.361904762 L68.4033058,0.361904762 C71.7355372,0.361904762 73.9570248,2.17142857 73.9570248,4.7047619 C73.9570248,6.96666667 72.4760331,8.23333333 70.1619835,8.95714286 C72.753719,9.5 74.4198347,10.7666667 74.4198347,13.2095238 Z M63.0347107,7.69047619 L67.2,7.69047619 C69.3289256,7.69047619 70.2545455,6.6952381 70.2545455,5.42857143 C70.2545455,4.07142857 69.2363636,3.16666667 67.5702479,3.16666667 L63.0347107,3.16666667 L63.0347107,7.69047619 Z M70.5322314,12.7571429 C70.5322314,11.4904762 69.6991736,10.3142857 67.477686,10.3142857 L62.9421488,10.3142857 L62.9421488,15.2904762 L67.292562,15.2904762 C69.0512397,15.2 70.5322314,14.3857143 70.5322314,12.7571429 Z" id="Shape"></path>
                    <path d="M89.6,14.2047619 L82.1024793,14.2047619 L80.7140496,17.9142857 L76.4561983,17.9142857 L83.6760331,0.361904762 L87.9338843,0.361904762 L95.153719,17.9142857 L90.8958678,17.9142857 L89.6,14.2047619 Z M88.4892562,11.3095238 L85.8975207,4.34285714 L83.3057851,11.3095238 L88.4892562,11.3095238 Z" id="Shape"></path>
                    <polygon id="Path" points="111.166942 14.747619 111.166942 18.0047619 98.3008264 18.0047619 98.3008264 0.361904762 102.373554 0.361904762 102.373554 14.747619"></polygon>
                </g>
                <g id="Group" transform="translate(108.000000, 70.000000)" fill="#FFFFFF">
                    <polygon id="Path" points="12.972 14.31 12.972 17.46 0.46 17.46 0.46 0.36 4.416 0.36 4.416 14.4 12.972 14.4"></polygon>
                    <path d="M27.784,13.86 L20.516,13.86 L19.136,17.55 L14.996,17.55 L21.988,0.45 L26.128,0.45 L33.12,17.55 L28.98,17.55 L27.784,13.86 Z M26.772,10.98 L24.196,4.23 L21.62,10.98 L26.772,10.98 Z" id="Shape"></path>
                    <path d="M51.336,12.87 C51.336,15.66 49.036,17.46 45.448,17.46 L36.248,17.46 L36.248,0.36 L45.448,0.36 C48.76,0.36 50.876,2.07 50.876,4.59 C50.876,6.84 49.404,8.1 47.196,8.73 C49.772,9.18 51.336,10.53 51.336,12.87 Z M40.204,7.38 L44.252,7.38 C46.368,7.38 47.196,6.39 47.196,5.22 C47.196,3.87 46.184,3.06 44.62,3.06 L40.204,3.06 L40.204,7.38 L40.204,7.38 Z M47.564,12.33 C47.564,11.07 46.736,9.9 44.62,9.9 L40.204,9.9 L40.204,14.76 L44.528,14.76 C46.092,14.76 47.564,13.95 47.564,12.33 Z" id="Shape"></path>
                    <path d="M61.824,14.85 C63.572,14.85 64.952,14.04 64.952,12.69 C64.952,11.25 63.48,10.8 61.272,10.26 C58.052,9.54 54.648,8.73 54.648,5.13 C54.648,1.89 57.132,-1.42108547e-14 61.364,-1.42108547e-14 C65.504,-1.42108547e-14 68.264,1.8 68.54,5.85 L64.676,5.85 C64.492,3.78 63.204,2.88 61.456,2.88 C59.616,2.88 58.512,3.69 58.512,4.95 C58.512,6.12 59.34,6.57 62.468,7.38 C64.952,8.01 68.908,8.55 68.908,12.42 C68.908,15.57 66.24,17.73 61.916,17.73 C57.5,17.73 54.372,15.39 54.188,11.25 L58.144,11.25 C58.236,13.59 59.8,14.85 61.824,14.85 Z" id="Path"></path>
                </g>
                <g id="Group" transform="translate(108.000000, 43.000000)" fill="#FFFFFF">
                    <polygon id="Path" points="17.9605263 1.26 17.9605263 17.82 14.2763158 17.82 14.2763158 6.75 9.39473684 13.23 9.02631579 13.23 4.14473684 6.75 4.14473684 17.73 0.460526316 17.73 0.460526316 1.26 3.96052632 1.26 9.21052632 8.55 14.4605263 1.26"></polygon>
                    <polygon id="Path" points="26.0657895 4.05 26.0657895 7.83 34.5394737 7.83 34.5394737 10.62 26.0657895 10.62 26.0657895 14.85 35.1842105 14.85 35.1842105 17.73 22.2894737 17.73 22.2894737 1.26 35.1842105 1.26 35.1842105 4.14 26.0657895 4.14"></polygon>
                    <path d="M45.0394737,15.21 C46.6973684,15.21 48.0789474,14.49 48.0789474,13.05 C48.0789474,11.61 46.6973684,11.25 44.4868421,10.71 C41.3552632,9.99 38.1315789,9.27 38.1315789,5.76 C38.1315789,2.7 40.5263158,0.81 44.6710526,0.81 C48.7236842,0.81 51.3026316,2.61 51.6710526,6.39 L47.8947368,6.39 C47.7105263,4.41 46.5131579,3.51 44.7631579,3.51 C43.0131579,3.51 41.9078947,4.23 41.9078947,5.58 C41.9078947,6.66 42.7368421,7.2 45.6842105,7.92 C48.0789474,8.55 51.8552632,9.09 51.8552632,12.78 C51.8552632,15.84 49.2763158,17.91 45.0394737,17.91 C40.7105263,17.91 37.7631579,15.66 37.5789474,11.61 L41.4473684,11.61 C41.6315789,14.04 43.1052632,15.21 45.0394737,15.21 Z" id="Path"></path>
                    <polygon id="Path" points="70 1.26 70 17.82 66.2236842 17.82 66.2236842 10.98 59.0394737 10.98 59.0394737 17.82 55.2631579 17.82 55.2631579 1.26 59.0394737 1.26 59.0394737 7.92 66.2236842 7.92 66.2236842 1.26"></polygon>
                </g>
                <ellipse id="Oval" fill="#00BBBA" transform="translate(52.411136, 52.082703) rotate(-13.285796) translate(-52.411136, -52.082703) " cx="52.4111361" cy="52.082703" rx="43.1565931" ry="42.9888714"></ellipse>
                <path d="M84.3494814,65.6046309 C83.7041427,64.4119259 82.6900392,63.5862069 81.3993619,63.2192208 L81.3071706,42.1175153 C81.6759356,42.0257688 81.9525093,41.9340222 82.229083,41.6587826 C83.427569,41.0165568 84.3494814,39.8238517 84.7182463,38.4476535 C85.0870112,37.0714553 84.9026288,35.6035106 84.1650989,34.4108055 C82.6900392,31.9336488 79.463346,31.0161834 76.9741826,32.4841281 C76.6054177,32.6676212 76.4210352,32.8511143 76.0522703,33.0346074 L57.6140235,22.4837546 C57.9827884,21.2910495 57.7062147,19.9148514 57.0608761,18.6303997 C55.5858163,16.153243 52.3591232,15.2357776 49.8699598,16.7037223 C48.6714738,17.3459481 47.7495615,18.5386532 47.3807965,19.9148514 C47.196414,20.8323168 47.196414,21.7497823 47.3807965,22.5755012 L29.1269322,33.2181004 C28.4815935,32.5758746 27.6518724,32.1171419 26.7299601,31.8419023 C25.3470916,31.4749161 23.8720318,31.6584092 22.6735458,32.3923815 C21.4750597,33.0346074 20.5531474,34.2273124 20.1843825,35.6035106 C19.8156175,36.9797088 20,38.4476535 20.7375299,39.6403586 C21.3828685,40.7413172 22.5813546,41.6587826 23.6876494,42.0257688 L23.7798406,63.3109673 C23.4110757,63.4027139 23.134502,63.4944604 22.765737,63.7697 C20.2765737,65.2376448 19.3546614,68.4487738 20.8297211,70.9259306 C21.4750597,72.1186357 22.6735458,73.0361011 24.0564143,73.4030873 C24.5173705,73.4948338 24.9783266,73.5865804 25.4392828,73.5865804 C26.3611951,73.5865804 27.2831075,73.4030873 28.1128286,72.9443546 C28.4815935,72.7608615 28.7581672,72.4856218 29.0347409,72.3021288 L47.4729877,82.8529815 C47.2886053,84.0456866 47.3807965,85.3301382 48.0261352,86.4310967 C49.0402387,88.0825345 50.8840634,89 52.6356969,89 C53.5576092,89 54.4795215,88.8165069 55.3092426,88.3577742 C56.5077287,87.7155484 57.429641,86.5228433 57.798406,85.1466451 C57.9827884,84.3209262 57.9827884,83.4952073 57.798406,82.6694884 L76.0522703,72.1186357 C76.6976089,72.6691149 77.4351388,73.1278477 78.1726687,73.3113407 C78.6336249,73.4030873 79.094581,73.4948338 79.5555372,73.4948338 C80.4774495,73.4948338 81.3993619,73.3113407 82.229083,72.852608 C83.427569,72.2103822 84.3494814,71.0176771 84.7182463,69.6414789 C85.1792025,68.2652808 85.0870112,66.797336 84.3494814,65.6046309 Z M55.3092426,43.9524462 C57.7062147,42.7597412 59.9188043,41.8422757 61.9470115,41.1083033 C66.8331469,39.365119 71.0739437,38.6311466 74.1162544,38.2641604 C74.2084456,38.7228932 74.3928281,39.1816259 74.6694018,39.7321052 C75.4991229,41.1083033 76.6976089,41.8422757 78.0804775,42.2092619 L78.1726687,63.0357277 C77.9882862,63.2192208 77.7117125,63.3109673 77.4351388,63.4027139 C69.9676489,54.2280593 62.2235852,47.9892942 55.3092426,43.9524462 Z M27.2831075,63.4027139 C27.098725,63.4027139 27.0065338,63.3109673 26.8221513,63.3109673 C26.8221513,63.3109673 26.8221513,63.3109673 26.7299601,63.3109673 L26.6377689,42.2092619 C27.098725,42.1175153 27.5596812,41.8422757 28.0206374,41.6587826 C29.2191234,41.0165568 30.1410357,39.8238517 30.5098007,38.4476535 C30.5098007,38.4476535 30.5098007,38.355907 30.5098007,38.355907 C33.5521114,38.7228932 37.7929082,39.4568655 42.7712348,41.2000499 C44.799442,41.9340222 47.0120316,42.8514877 49.4090037,44.0441928 C42.4024699,47.9892942 34.7505974,54.1363128 27.2831075,63.4027139 Z M55.9545813,25.1444045 L74.0240632,35.4200175 C70.79737,35.7870037 66.3721907,36.6127226 61.1172904,38.355907 C58.9047008,39.1816259 56.4155375,40.1908379 53.8341829,41.4752895 L53.7419917,26.4288561 C54.1107566,26.3371095 54.4795215,26.1536165 54.8482865,25.9701234 C55.3092426,25.7866303 55.6780076,25.4196441 55.9545813,25.1444045 Z M48.5792826,25.236151 C49.2246212,25.7866303 49.9621511,26.245363 50.7918722,26.4288561 C50.7918722,26.4288561 50.8840634,26.4288561 50.8840634,26.4288561 L50.9762546,41.5670361 C48.3027089,40.1908379 45.7213543,39.1816259 43.4165734,38.355907 C38.4382468,36.6127226 34.1052588,35.7870037 30.8785656,35.4200175 L48.5792826,25.236151 Z M48.9480475,80.1923316 L30.6941832,69.7332255 C31.0629481,68.3570273 30.8785656,66.8890826 30.1410357,65.6963775 C29.9566533,65.4211379 29.864462,65.2376448 29.6800796,64.9624051 C36.9631871,56.0629902 44.430677,50.0994648 51.1606371,46.2461099 L51.3450196,78.6326404 C50.9762546,78.7243869 50.6074897,78.90788 50.2387248,79.1831197 C49.6855774,79.3666127 49.2246212,79.7335989 48.9480475,80.1923316 Z M74.5772106,69.6414789 L56.5999199,80.1005851 C55.9545813,79.4583593 55.1248602,78.9996266 54.2029478,78.6326404 C54.2029478,78.6326404 54.1107566,78.6326404 54.1107566,78.6326404 L53.8341829,46.429603 C60.4719517,50.3747044 67.9394417,56.3382299 75.2225492,65.2376448 C74.9459755,65.6963775 74.6694018,66.2468568 74.5772106,66.797336 C74.3928281,67.7148015 74.3928281,68.7240135 74.5772106,69.6414789 Z" id="Shape" fill="#FFFFFF"></path>
            </g>
        </g>
    </g>
</svg>