
<svg width="189px" height="78px" viewBox="0 0 189 78" version="1.1" xmlns="http://www.w3.org/2000/svg" xmlns:xlink="http://www.w3.org/1999/xlink">
    <g id="Page-1" stroke="none" stroke-width="1" fill="none" fill-rule="evenodd">
        <g id="Desktop-HD-Copy-18" transform="translate(-210.000000, -1543.000000)" fill="#00BBBA" fill-rule="nonzero">
            <g id="gbm_logo_v1-02" transform="translate(210.000000, 1543.000000)">
                <g id="Group" transform="translate(90.000000, 5.000000)">
                    <g>
                        <path d="M15.675,8.01428571 L15.675,16.5952381 L13.1175,16.5952381 L12.87,14.4904762 C11.88,15.947619 10.23,16.8380952 7.92,16.8380952 C3.0525,16.8380952 0,13.5190476 0,8.74285714 C0,3.88571429 3.2175,0.566666667 8.1675,0.566666667 C12.21,0.566666667 15.015,2.67142857 15.675,6.23333333 L11.88,6.23333333 C11.385,4.53333333 10.23,3.4 8.085,3.4 C5.28,3.4 3.63,5.74761905 3.63,8.74285714 C3.63,11.9 5.28,14.0857143 8.1675,14.0857143 C10.23,14.0857143 11.9625,12.8714286 12.375,10.6857143 L7.8375,10.6857143 L7.8375,8.0952381 L15.675,8.0952381 L15.675,8.01428571 Z" id="Path"></path>
                        <polygon id="Path" points="30.855 13.6809524 30.855 16.5952381 19.3875 16.5952381 19.3875 0.80952381 23.0175 0.80952381 23.0175 13.6809524"></polygon>
                        <path d="M48.9225,8.66190476 C48.9225,13.3571429 45.54,16.7571429 40.755,16.7571429 C35.97,16.7571429 32.5875,13.3571429 32.5875,8.66190476 C32.5875,3.96666667 35.97,0.485714286 40.755,0.485714286 C45.4575,0.485714286 48.9225,3.96666667 48.9225,8.66190476 Z M36.2175,8.66190476 C36.2175,11.7380952 37.95,13.8428571 40.6725,13.8428571 C43.395,13.8428571 45.1275,11.7380952 45.1275,8.66190476 C45.1275,5.58571429 43.395,3.4 40.6725,3.4 C37.95,3.4 36.2175,5.58571429 36.2175,8.66190476 Z" id="Shape"></path>
                        <path d="M65.9175,12.3047619 C65.9175,14.8952381 63.7725,16.5142857 60.555,16.5142857 L52.14,16.5142857 L52.14,0.80952381 L60.555,0.80952381 C63.525,0.80952381 65.505,2.42857143 65.505,4.6952381 C65.505,6.71904762 64.185,7.85238095 62.1225,8.5 C64.4325,8.9047619 65.9175,10.1190476 65.9175,12.3047619 Z M55.6875,7.28571429 L59.4,7.28571429 C61.2975,7.28571429 62.1225,6.3952381 62.1225,5.26190476 C62.1225,4.04761905 61.215,3.23809524 59.73,3.23809524 L55.6875,3.23809524 L55.6875,7.28571429 Z M62.4525,11.8190476 C62.4525,10.6857143 61.71,9.63333333 59.73,9.63333333 L55.6875,9.63333333 L55.6875,14.0857143 L59.565,14.0857143 C61.1325,14.0857143 62.4525,13.3571429 62.4525,11.8190476 Z" id="Shape"></path>
                        <path d="M79.4475,13.1952381 L72.765,13.1952381 L71.5275,16.5142857 L67.7325,16.5142857 L74.1675,0.80952381 L77.9625,0.80952381 L84.3975,16.5142857 L80.6025,16.5142857 L79.4475,13.1952381 Z M78.4575,10.5238095 L76.1475,4.29047619 L73.8375,10.5238095 L78.4575,10.5238095 Z" id="Shape"></path>
                        <polygon id="Path" points="98.5875 13.6809524 98.5875 16.5952381 87.12 16.5952381 87.12 0.80952381 90.75 0.80952381 90.75 13.6809524"></polygon>
                    </g>
                    <g>
                        <path d="M15.675,8.01428571 L15.675,16.5952381 L13.1175,16.5952381 L12.87,14.4904762 C11.88,15.947619 10.23,16.8380952 7.92,16.8380952 C3.0525,16.8380952 0,13.5190476 0,8.74285714 C0,3.88571429 3.2175,0.566666667 8.1675,0.566666667 C12.21,0.566666667 15.015,2.67142857 15.675,6.23333333 L11.88,6.23333333 C11.385,4.53333333 10.23,3.4 8.085,3.4 C5.28,3.4 3.63,5.74761905 3.63,8.74285714 C3.63,11.9 5.28,14.0857143 8.1675,14.0857143 C10.23,14.0857143 11.9625,12.8714286 12.375,10.6857143 L7.8375,10.6857143 L7.8375,8.0952381 L15.675,8.0952381 L15.675,8.01428571 Z" id="Path"></path>
                        <polygon id="Path" points="30.855 13.6809524 30.855 16.5952381 19.3875 16.5952381 19.3875 0.80952381 23.0175 0.80952381 23.0175 13.6809524"></polygon>
                        <path d="M48.9225,8.66190476 C48.9225,13.3571429 45.54,16.7571429 40.755,16.7571429 C35.97,16.7571429 32.5875,13.3571429 32.5875,8.66190476 C32.5875,3.96666667 35.97,0.485714286 40.755,0.485714286 C45.4575,0.485714286 48.9225,3.96666667 48.9225,8.66190476 Z M36.2175,8.66190476 C36.2175,11.7380952 37.95,13.8428571 40.6725,13.8428571 C43.395,13.8428571 45.1275,11.7380952 45.1275,8.66190476 C45.1275,5.58571429 43.395,3.4 40.6725,3.4 C37.95,3.4 36.2175,5.58571429 36.2175,8.66190476 Z" id="Shape"></path>
                        <path d="M65.9175,12.3047619 C65.9175,14.8952381 63.7725,16.5142857 60.555,16.5142857 L52.14,16.5142857 L52.14,0.80952381 L60.555,0.80952381 C63.525,0.80952381 65.505,2.42857143 65.505,4.6952381 C65.505,6.71904762 64.185,7.85238095 62.1225,8.5 C64.4325,8.9047619 65.9175,10.1190476 65.9175,12.3047619 Z M55.6875,7.28571429 L59.4,7.28571429 C61.2975,7.28571429 62.1225,6.3952381 62.1225,5.26190476 C62.1225,4.04761905 61.215,3.23809524 59.73,3.23809524 L55.6875,3.23809524 L55.6875,7.28571429 Z M62.4525,11.8190476 C62.4525,10.6857143 61.71,9.63333333 59.73,9.63333333 L55.6875,9.63333333 L55.6875,14.0857143 L59.565,14.0857143 C61.1325,14.0857143 62.4525,13.3571429 62.4525,11.8190476 Z" id="Shape"></path>
                        <path d="M79.4475,13.1952381 L72.765,13.1952381 L71.5275,16.5142857 L67.7325,16.5142857 L74.1675,0.80952381 L77.9625,0.80952381 L84.3975,16.5142857 L80.6025,16.5142857 L79.4475,13.1952381 Z M78.4575,10.5238095 L76.1475,4.29047619 L73.8375,10.5238095 L78.4575,10.5238095 Z" id="Shape"></path>
                        <polygon id="Path" points="98.5875 13.6809524 98.5875 16.5952381 87.12 16.5952381 87.12 0.80952381 90.75 0.80952381 90.75 13.6809524"></polygon>
                    </g>
                </g>
                <g id="Group" transform="translate(90.000000, 55.000000)">
                    <g>
                        <polygon id="Path" points="11.16 13.3571429 11.16 16.1904762 0 16.1904762 0 0.80952381 3.55466667 0.80952381 3.55466667 13.4380952 11.16 13.4380952"></polygon>
                        <path d="M24.552,12.8714286 L18.0213333,12.8714286 L16.7813333,16.1904762 L13.0613333,16.1904762 L19.344,0.80952381 L23.064,0.80952381 L29.3466667,16.1904762 L25.6266667,16.1904762 L24.552,12.8714286 Z M23.56,10.2809524 L21.2453333,4.20952381 L18.9306667,10.2809524 L23.56,10.2809524 Z" id="Shape"></path>
                        <path d="M45.632,11.9809524 C45.632,14.4904762 43.5653333,16.1095238 40.3413333,16.1095238 L32.0746667,16.1095238 L32.0746667,0.728571429 L40.3413333,0.728571429 C43.3173333,0.728571429 45.2186667,2.26666667 45.2186667,4.53333333 C45.2186667,6.55714286 43.896,7.69047619 41.912,8.25714286 C44.2266667,8.74285714 45.632,9.87619048 45.632,11.9809524 Z M35.712,7.12380952 L39.3493333,7.12380952 C41.2506667,7.12380952 41.9946667,6.23333333 41.9946667,5.18095238 C41.9946667,3.96666667 41.0853333,3.23809524 39.68,3.23809524 L35.712,3.23809524 L35.712,7.12380952 L35.712,7.12380952 Z M42.3253333,11.5761905 C42.3253333,10.4428571 41.5813333,9.39047619 39.68,9.39047619 L35.712,9.39047619 L35.712,13.7619048 L39.5973333,13.7619048 C41.0026667,13.7619048 42.3253333,13.0333333 42.3253333,11.5761905 Z" id="Shape"></path>
                        <path d="M55.1386667,13.8428571 C56.7093333,13.8428571 57.9493333,13.1142857 57.9493333,11.9 C57.9493333,10.6047619 56.6266667,10.2 54.6426667,9.71428571 C51.7493333,9.06666667 48.6906667,8.33809524 48.6906667,5.1 C48.6906667,2.18571429 50.9226667,0.485714286 54.7253333,0.485714286 C58.4453333,0.485714286 60.9253333,2.1047619 61.1733333,5.74761905 L57.7013333,5.74761905 C57.536,3.88571429 56.3786667,3.07619048 54.808,3.07619048 C53.1546667,3.07619048 52.1626667,3.8047619 52.1626667,4.93809524 C52.1626667,5.99047619 52.9066667,6.3952381 55.7173333,7.12380952 C57.9493333,7.69047619 61.504,8.17619048 61.504,11.6571429 C61.504,14.4904762 59.1066667,16.4333333 55.2213333,16.4333333 C51.2533333,16.4333333 48.4426667,14.3285714 48.2773333,10.6047619 L51.832,10.6047619 C51.9146667,12.7095238 53.2373333,13.8428571 55.1386667,13.8428571 Z" id="Path"></path>
                    </g>
                    <g>
                        <polygon id="Path" points="11.16 13.3571429 11.16 16.1904762 0 16.1904762 0 0.80952381 3.55466667 0.80952381 3.55466667 13.4380952 11.16 13.4380952"></polygon>
                        <path d="M24.552,12.8714286 L18.0213333,12.8714286 L16.7813333,16.1904762 L13.0613333,16.1904762 L19.344,0.80952381 L23.064,0.80952381 L29.3466667,16.1904762 L25.6266667,16.1904762 L24.552,12.8714286 Z M23.56,10.2809524 L21.2453333,4.20952381 L18.9306667,10.2809524 L23.56,10.2809524 Z" id="Shape"></path>
                        <path d="M45.632,11.9809524 C45.632,14.4904762 43.5653333,16.1095238 40.3413333,16.1095238 L32.0746667,16.1095238 L32.0746667,0.728571429 L40.3413333,0.728571429 C43.3173333,0.728571429 45.2186667,2.26666667 45.2186667,4.53333333 C45.2186667,6.55714286 43.896,7.69047619 41.912,8.25714286 C44.2266667,8.74285714 45.632,9.87619048 45.632,11.9809524 Z M35.712,7.12380952 L39.3493333,7.12380952 C41.2506667,7.12380952 41.9946667,6.23333333 41.9946667,5.18095238 C41.9946667,3.96666667 41.0853333,3.23809524 39.68,3.23809524 L35.712,3.23809524 L35.712,7.12380952 L35.712,7.12380952 Z M42.3253333,11.5761905 C42.3253333,10.4428571 41.5813333,9.39047619 39.68,9.39047619 L35.712,9.39047619 L35.712,13.7619048 L39.5973333,13.7619048 C41.0026667,13.7619048 42.3253333,13.0333333 42.3253333,11.5761905 Z" id="Shape"></path>
                        <path d="M55.1386667,13.8428571 C56.7093333,13.8428571 57.9493333,13.1142857 57.9493333,11.9 C57.9493333,10.6047619 56.6266667,10.2 54.6426667,9.71428571 C51.7493333,9.06666667 48.6906667,8.33809524 48.6906667,5.1 C48.6906667,2.18571429 50.9226667,0.485714286 54.7253333,0.485714286 C58.4453333,0.485714286 60.9253333,2.1047619 61.1733333,5.74761905 L57.7013333,5.74761905 C57.536,3.88571429 56.3786667,3.07619048 54.808,3.07619048 C53.1546667,3.07619048 52.1626667,3.8047619 52.1626667,4.93809524 C52.1626667,5.99047619 52.9066667,6.3952381 55.7173333,7.12380952 C57.9493333,7.69047619 61.504,8.17619048 61.504,11.6571429 C61.504,14.4904762 59.1066667,16.4333333 55.2213333,16.4333333 C51.2533333,16.4333333 48.4426667,14.3285714 48.2773333,10.6047619 L51.832,10.6047619 C51.9146667,12.7095238 53.2373333,13.8428571 55.1386667,13.8428571 Z" id="Path"></path>
                    </g>
                </g>
                <g id="Group" transform="translate(90.000000, 31.000000)">
                    <g id="Path">
                        <polygon points="15.75 0.765 15.75 16.405 12.4342105 16.405 12.4342105 6.035 8.04078947 12.155 7.70921053 12.155 3.31578947 6.035 3.31578947 16.405 -2.84217094e-14 16.405 -2.84217094e-14 0.765 3.15 0.765 7.875 7.65 12.6 0.765"></polygon>
                        <polygon points="22.9618421 3.485 22.9618421 7.055 30.5881579 7.055 30.5881579 9.69 22.9618421 9.69 22.9618421 13.685 31.1684211 13.685 31.1684211 16.405 19.5631579 16.405 19.5631579 0.765 31.1684211 0.765 31.1684211 3.485"></polygon>
                        <path d="M40.1210526,14.025 C41.6131579,14.025 42.8565789,13.345 42.8565789,11.985 C42.8565789,10.625 41.6131579,10.285 39.6236842,9.775 C36.8052632,9.095 33.9039474,8.415 33.9039474,5.1 C33.9039474,2.21 36.0592105,0.425 39.7894737,0.425 C43.4368421,0.425 45.7578947,2.125 46.0894737,5.695 L42.6907895,5.695 C42.525,3.825 41.4473684,2.975 39.8723684,2.975 C38.2973684,2.975 37.3026316,3.655 37.3026316,4.93 C37.3026316,5.95 38.0486842,6.46 40.7013158,7.14 C42.8565789,7.735 46.2552632,8.245 46.2552632,11.73 C46.2552632,14.62 43.9342105,16.575 40.1210526,16.575 C36.225,16.575 33.5723684,14.45 33.4065789,10.625 L36.8881579,10.625 C36.9710526,12.835 38.3802632,14.025 40.1210526,14.025 Z"></path>
                        <polygon points="62.5855263 0.765 62.5855263 16.405 59.1868421 16.405 59.1868421 9.945 52.7210526 9.945 52.7210526 16.405 49.3223684 16.405 49.3223684 0.765 52.7210526 0.765 52.7210526 7.055 59.1868421 7.055 59.1868421 0.765"></polygon>
                    </g>
                    <g id="Path">
                        <polygon points="15.75 0.765 15.75 16.405 12.4342105 16.405 12.4342105 6.035 8.04078947 12.155 7.70921053 12.155 3.31578947 6.035 3.31578947 16.405 -2.84217094e-14 16.405 -2.84217094e-14 0.765 3.15 0.765 7.875 7.65 12.6 0.765"></polygon>
                        <polygon points="22.9618421 3.485 22.9618421 7.055 30.5881579 7.055 30.5881579 9.69 22.9618421 9.69 22.9618421 13.685 31.1684211 13.685 31.1684211 16.405 19.5631579 16.405 19.5631579 0.765 31.1684211 0.765 31.1684211 3.485"></polygon>
                        <path d="M40.1210526,14.025 C41.6131579,14.025 42.8565789,13.345 42.8565789,11.985 C42.8565789,10.625 41.6131579,10.285 39.6236842,9.775 C36.8052632,9.095 33.9039474,8.415 33.9039474,5.1 C33.9039474,2.21 36.0592105,0.425 39.7894737,0.425 C43.4368421,0.425 45.7578947,2.125 46.0894737,5.695 L42.6907895,5.695 C42.525,3.825 41.4473684,2.975 39.8723684,2.975 C38.2973684,2.975 37.3026316,3.655 37.3026316,4.93 C37.3026316,5.95 38.0486842,6.46 40.7013158,7.14 C42.8565789,7.735 46.2552632,8.245 46.2552632,11.73 C46.2552632,14.62 43.9342105,16.575 40.1210526,16.575 C36.225,16.575 33.5723684,14.45 33.4065789,10.625 L36.8881579,10.625 C36.9710526,12.835 38.3802632,14.025 40.1210526,14.025 Z"></path>
                        <polygon points="62.5855263 0.765 62.5855263 16.405 59.1868421 16.405 59.1868421 9.945 52.7210526 9.945 52.7210526 16.405 49.3223684 16.405 49.3223684 0.765 52.7210526 0.765 52.7210526 7.055 59.1868421 7.055 59.1868421 0.765"></polygon>
                    </g>
                </g>
                <g id="Group">
                    <path d="M18.5042553,50.3680851 C18.6702128,50.5340426 18.8361702,50.7829787 18.9191489,51.0319149 C19.6659574,52.1106383 19.7489362,53.4382979 19.4170213,54.6829787 L35.8468085,64.1425532 C36.1787234,63.7276596 36.593617,63.3957447 36.9255319,63.2297872 C37.2574468,62.9808511 37.5893617,62.8978723 37.9212766,62.7319149 L37.6723404,33.4404255 C31.7808511,36.9255319 25.0595745,42.2361702 18.5042553,50.3680851 Z" id="Path"></path>
                    <path d="M36.2617021,31.2829787 C34.1042553,30.2042553 32.112766,29.3744681 30.287234,28.7106383 C25.8893617,27.1340426 22.0723404,26.4702128 19.2510638,26.1382979 C19.2510638,26.1382979 19.2510638,26.2212766 19.2510638,26.2212766 C18.9191489,27.5489362 18.1723404,28.5446809 17.0106383,29.1255319 C16.5957447,29.2914894 16.1808511,29.5404255 15.7659574,29.6234043 L15.8489362,48.7085106 C15.9319149,48.7085106 15.9319149,48.7085106 15.9319149,48.7085106 C16.0978723,48.7085106 16.1808511,48.7914894 16.3468085,48.7914894 C23.0680851,40.5765957 30.0382979,35.0170213 36.2617021,31.2829787 Z" id="Path"></path>
                    <path d="M37.7553191,29.2085106 L37.6723404,15.5170213 C37.6723404,15.5170213 37.5893617,15.5170213 37.5893617,15.5170213 C36.7595745,15.3510638 36.1787234,14.9361702 35.5978723,14.4382979 L19.7489362,23.6489362 C22.6531915,23.9808511 26.4702128,24.7276596 31.0340426,26.3042553 C33.0255319,27.0510638 35.3489362,27.9638298 37.7553191,29.2085106 Z" id="Path"></path>
                    <path d="M58.5,23.6489362 L42.1531915,14.2723404 C41.987234,14.6042553 41.6553191,14.8531915 41.2404255,15.1021277 C40.9085106,15.2680851 40.5765957,15.4340426 40.2446809,15.5170213 L40.3276596,29.1255319 C42.7340426,27.9638298 44.8914894,27.0510638 46.8829787,26.3042553 C51.612766,24.6446809 55.5957447,23.8978723 58.5,23.6489362 Z" id="Path"></path>
                    <path d="M40.3276596,33.5234043 L40.5765957,62.6489362 C40.5765957,62.6489362 40.6595745,62.6489362 40.6595745,62.6489362 C41.4893617,62.9808511 42.1531915,63.3957447 42.8170213,63.9765957 L59.0808511,54.5170213 C58.9148936,53.687234 58.9148936,52.7744681 59.0808511,51.9446809 C59.1638298,51.4468085 59.412766,50.9489362 59.6617021,50.5340426 C53.106383,42.4851064 46.3851064,37.0914894 40.3276596,33.5234043 Z" id="Path"></path>
                    <path d="M59.0808511,27.4659574 C58.8319149,27.0510638 58.7489362,26.6361702 58.5829787,26.1382979 C55.8446809,26.4702128 52.0276596,27.1340426 47.6297872,28.7106383 C45.8042553,29.3744681 43.812766,30.2042553 41.6553191,31.2829787 C47.8787234,35.0170213 54.8489362,40.5765957 61.5702128,48.8744681 C61.8191489,48.7914894 62.0680851,48.6255319 62.2340426,48.5425532 L62.1510638,29.706383 C60.906383,29.3744681 59.8276596,28.7106383 59.0808511,27.4659574 Z" id="Path"></path>
                    <path d="M39.1659574,0.331914894 C17.7574468,0.331914894 0.414893617,17.6744681 0.414893617,39.0829787 C0.414893617,60.4914894 17.7574468,77.8340426 39.1659574,77.8340426 C60.5744681,77.8340426 77.9170213,60.4914894 77.9170213,39.0829787 C77.9170213,17.6744681 60.4914894,0.331914894 39.1659574,0.331914894 Z M65.9680851,57.5042553 C65.1382979,57.9191489 64.3085106,58.0851064 63.5617021,58.0851064 C63.1468085,58.0851064 62.7319149,58.0021277 62.3170213,57.9191489 C61.5702128,57.7531915 60.9893617,57.3382979 60.4085106,56.8404255 L43.9787234,66.3 C44.1446809,67.0468085 44.1446809,67.793617 43.9787234,68.5404255 C43.6468085,69.8680851 42.9,70.8638298 41.7382979,71.4446809 C40.9085106,71.8595745 40.0787234,72.0255319 39.3319149,72.0255319 C37.6723404,72.0255319 36.0957447,71.1957447 35.1829787,69.7021277 C34.6021277,68.706383 34.4361702,67.5446809 34.6851064,66.4659574 L18.0893617,56.9234043 C17.9234043,57.0893617 17.5914894,57.3382979 17.2595745,57.5042553 C16.4297872,57.9191489 15.6,58.0851064 14.8531915,58.0851064 C14.4382979,58.0851064 14.0234043,58.0021277 13.6085106,57.9191489 C12.2808511,57.587234 11.2851064,56.8404255 10.7042553,55.6787234 C9.37659574,53.4382979 10.206383,50.5340426 12.4468085,49.206383 C12.7787234,49.0404255 13.0276596,48.8744681 13.3595745,48.7914894 L13.2765957,29.5404255 C12.2808511,29.2085106 11.2851064,28.4617021 10.6212766,27.3829787 C9.87446809,26.3042553 9.79148936,24.9765957 10.1234043,23.7319149 C10.4553191,22.4042553 11.2021277,21.4085106 12.3638298,20.8276596 C13.4425532,20.0808511 14.7702128,19.9978723 16.0148936,20.3297872 C16.8446809,20.4957447 17.5085106,20.9106383 18.1723404,21.5744681 L34.5191489,12.1148936 C34.3531915,11.2851064 34.3531915,10.4553191 34.5191489,9.70851064 C34.8510638,8.38085106 35.5978723,7.38510638 36.7595745,6.80425532 C39,5.47659574 41.9042553,6.30638298 43.2319149,8.54680851 C43.812766,9.62553191 44.0617021,10.8702128 43.7297872,12.0319149 L60.3255319,21.5744681 C60.6574468,21.4085106 60.8234043,21.2425532 61.1553191,21.0765957 C63.3957447,19.7489362 66.3,20.5787234 67.6276596,22.8191489 C68.3744681,23.8978723 68.4574468,25.2255319 68.1255319,26.4702128 C67.793617,27.7978723 67.0468085,28.793617 65.8851064,29.3744681 C65.7191489,29.5404255 65.387234,29.706383 65.0553191,29.7893617 L65.1382979,48.8744681 C66.2170213,49.206383 67.1297872,49.8702128 67.793617,51.0319149 C68.5404255,52.1106383 68.6234043,53.4382979 68.2914894,54.6829787 C67.9595745,55.8446809 67.1297872,56.9234043 65.9680851,57.5042553 Z" id="Shape"></path>
                </g>
            </g>
        </g>
    </g>
</svg>