
<svg width="47px" height="33px" viewBox="0 0 47 33" version="1.1" xmlns="http://www.w3.org/2000/svg" xmlns:xlink="http://www.w3.org/1999/xlink">
    <g id="Page-1" stroke="none" stroke-width="1" fill="none" fill-rule="evenodd">
        <g id="Desktop-About-Copy-2" transform="translate(-410.000000, -1122.000000)" fill="#00BBBA" fill-rule="nonzero">
            <g id="Group-5-Copy" transform="translate(88.000000, 1006.000000)">
                <g id="Group-3" transform="translate(322.000000, 115.000000)">
                    <g id="noun_Mountains_2569638" transform="translate(0.000000, 1.000000)">
                        <path d="M46.8644818,30.7366083 L32.7244115,0.910135353 C32.4737011,0.356861825 31.9722801,0.0550762637 31.370575,0.00477867024 C30.819012,-0.0455189233 30.2173069,0.306564231 29.9665964,0.809540166 L21.3922985,15.7479254 L17.0299363,8.20328641 C16.7792259,7.75060807 16.2276629,7.44882251 15.7262419,7.44882251 C15.1746789,7.44882251 14.673258,7.70031047 14.3724054,8.20328641 L0.232335119,30.5857155 C-0.0685174403,31.0886914 -0.0685174403,31.6922626 0.182193026,32.1952385 C0.483045585,32.6982144 0.984466517,33 1.53602954,33 L45.4103611,33 C45.9619241,33 46.4633451,32.6982144 46.7140555,32.2455361 C47.0650502,31.8431553 47.0650502,31.2395842 46.8644818,30.7366083 Z M4.39412886,29.8815492 L15.6259577,12.0762011 L22.1444299,23.2925645 C22.5957087,24.0470284 23.5484085,24.2985163 24.3005399,23.845838 C25.0526713,23.3931596 25.3033817,22.4375054 24.8521029,21.6830415 L23.2475559,18.8663762 C23.2475559,18.8160786 23.297698,18.8160786 23.297698,18.765781 L31.2201487,4.93394283 L43.0035406,29.8312516 L4.39412886,29.8312516 L4.39412886,29.8815492 Z" id="Shape"></path>
                        <path d="M30.1013387,16.0049075 L33.1194413,23.0957931 C33.3589733,23.6668711 33.93385,24 34.5087267,24 C34.7003522,24 34.8919778,23.9524102 35.0836034,23.9048203 C35.8501056,23.5716915 36.1854503,22.7150744 35.898012,21.953637 L32.9278158,14.9103413 C32.592471,14.1489039 31.730156,13.8157751 30.9636537,14.1013141 C30.1492451,14.3868531 29.8139003,15.29106 30.1013387,16.0049075 Z" id="Path"></path>
                    </g>
                </g>
            </g>
        </g>
    </g>
</svg>