
<svg width="32px" height="32px" viewBox="0 0 32 32" version="1.1" xmlns="http://www.w3.org/2000/svg" xmlns:xlink="http://www.w3.org/1999/xlink">
    <g id="Page-1" stroke="none" stroke-width="1" fill="none" fill-rule="evenodd">
        <g id="Desktop-HD-Copy-18" transform="translate(-1362.000000, -46.000000)" fill="#00BBBA" fill-rule="nonzero">
            <g id="noun_413427_ffffff" transform="translate(1362.000000, 46.000000)">
                <g id="Group-10">
                    <g id="noun_929362-(1)" transform="translate(16.000000, 16.000000) scale(-1, 1) translate(-16.000000, -16.000000) ">
                        <path d="M31.3340345,28.1562682 L27.0586546,23.9020408 C26.4210979,23.2676385 25.4460113,23.0810496 24.6209379,23.4169096 C24.6209379,23.4169096 24.6209379,23.3795918 24.5834346,23.3795918 L22.5207513,21.3271137 C27.0211512,16.2892128 26.8336346,8.56443149 21.9957046,3.75043732 C16.9702581,-1.25014577 8.79453152,-1.25014577 3.76908494,3.75043732 C-1.25636165,8.75102041 -1.25636165,16.8862974 3.76908494,21.8868805 C6.28180823,24.387172 9.58210151,25.6186589 12.8823948,25.6186589 C15.9576681,25.6186589 18.995438,24.5364431 21.4331547,22.3720117 L23.4583346,24.387172 C22.9707913,25.245481 23.0833013,26.3276968 23.8333679,27.0740525 L28.1087479,31.3282799 C28.5587879,31.7760933 29.1213379,32 29.6838879,32 C30.2464378,32 30.8464912,31.7760933 31.2590278,31.3282799 C32.2341145,30.4326531 32.2341145,29.0145773 31.3340345,28.1562682 Z M4.89418492,20.8046647 C0.468791659,16.4011662 0.468791659,9.2361516 4.89418492,4.79533528 C7.10688155,2.59358601 10.0321415,1.47405248 12.9198981,1.47405248 C15.8451581,1.47405248 18.7329147,2.59358601 20.9456113,4.79533528 C25.4085079,9.2361516 25.4085079,16.4011662 20.9831147,20.8046647 C16.5577214,25.245481 9.31957818,25.245481 4.89418492,20.8046647 Z M30.2839412,30.2833819 C29.9839145,30.5819242 29.5338745,30.5819242 29.2338479,30.2833819 L24.9584679,26.0291545 C24.6584413,25.7306122 24.6584413,25.2827988 24.9584679,24.9842566 C25.1084813,24.8349854 25.2959979,24.7603499 25.4835146,24.7603499 C25.6710313,24.7603499 25.8585479,24.8349854 26.0085612,24.9842566 L30.2839412,29.2011662 C30.5839678,29.4997085 30.5839678,29.9848397 30.2839412,30.2833819 Z" id="Shape"></path>
                    </g>
                </g>
            </g>
        </g>
    </g>
</svg>