
<svg width="34px" height="34px" viewBox="0 0 34 34" version="1.1" xmlns="http://www.w3.org/2000/svg" xmlns:xlink="http://www.w3.org/1999/xlink">
    <g id="Page-1" stroke="none" stroke-width="1" fill="none" fill-rule="evenodd">
        <g id="Desktop-About-Copy-2" transform="translate(-769.000000, -1122.000000)" fill="#00BBBA">
            <g id="Group-5-Copy" transform="translate(88.000000, 1006.000000)">
                <g id="Group-2" transform="translate(681.000000, 116.000000)">
                    <g id="noun_clock_1495285">
                        <path d="M17,34 C7.616,34 0,26.384 0,17 C0,7.616 7.616,0 17,0 C26.384,0 34,7.616 34,17 C34,26.384 26.384,34 17,34 Z M17,2.822 C9.18,2.822 2.822,9.18 2.822,17 C2.822,24.82 9.18,31.178 17,31.178 C24.82,31.178 31.178,24.82 31.178,17 C31.178,9.18 24.82,2.822 17,2.822 Z M20.162,22.236 L16.014,18.088 C15.708,17.816 15.572,17.408 15.572,17 L15.572,9.928 C15.572,9.146 16.218,8.5 17,8.5 C17.782,8.5 18.428,9.146 18.428,9.928 L18.428,16.32 L22.236,20.128 C22.814,20.706 22.814,21.624 22.236,22.202 C21.658,22.814 20.74,22.814 20.162,22.236 L20.162,22.236 Z" id="Shape"></path>
                    </g>
                </g>
            </g>
        </g>
    </g>
</svg>